<?xml version="1.0" encoding="utf-8"?>
<!-- Generator: Adobe Illustrator 27.5.0, SVG Export Plug-In . SVG Version: 6.00 Build 0)  -->
<svg version="1.1" xmlns="http://www.w3.org/2000/svg" xmlns:xlink="http://www.w3.org/1999/xlink" x="0px" y="0px"
	 viewBox="0 0 499.999 500" style="enable-background:new 0 0 499.999 500;" xml:space="preserve">
<g id="Background_Complete">
	<g>
		<circle style="fill:#F0F0F0;" cx="91.973" cy="95.567" r="22.839"/>
		<g>
			<path style="fill:#E0E0E0;" d="M102.47,96.27c0,0.066-1.143,0.127-3.027,0.173c-1.884,0.046-4.508,0.077-7.47,0.085l-0.258,0.001
				l0-0.259c-0.001-0.474-0.001-0.974-0.002-1.481c0-3.309,0.029-6.303,0.076-8.471c0.047-2.168,0.112-3.508,0.184-3.508
				c0.072,0,0.137,1.341,0.184,3.508c0.047,2.168,0.076,5.162,0.076,8.471c-0.001,0.507-0.001,1.007-0.002,1.481l-0.258-0.258
				c2.962,0.008,5.586,0.039,7.47,0.085C101.327,96.143,102.47,96.204,102.47,96.27z"/>
		</g>
		<g>
			<path style="fill:#E0E0E0;" d="M92.043,76.48c0.144,0,0.261,0.859,0.261,1.918c0,1.06-0.117,1.919-0.261,1.919
				c-0.144,0-0.26-0.859-0.26-1.919C91.782,77.339,91.899,76.48,92.043,76.48z"/>
		</g>
		<g>
			<path style="fill:#E0E0E0;" d="M102.449,79.561c0.102,0.102-0.415,0.783-1.153,1.521c-0.739,0.739-1.42,1.255-1.521,1.153
				c-0.102-0.102,0.414-0.783,1.153-1.521C101.666,79.976,102.347,79.46,102.449,79.561z"/>
		</g>
		<g>
			<path style="fill:#E0E0E0;" d="M108.534,86.208c0.065,0.13-0.633,0.609-1.515,1.147c-0.884,0.536-1.63,0.935-1.716,0.817
				c-0.084-0.114,0.541-0.714,1.445-1.262C107.651,86.36,108.471,86.081,108.534,86.208z"/>
		</g>
		<g>
			<path style="fill:#E0E0E0;" d="M112.1,96.072c0,0.144-1.171,0.26-2.616,0.26c-1.445,0-2.616-0.117-2.616-0.26
				s1.171-0.26,2.616-0.26C110.928,95.812,112.1,95.928,112.1,96.072z"/>
		</g>
		<g>
			<path style="fill:#E0E0E0;" d="M75.823,95.723c0,0.144-1.106,0.26-2.471,0.26c-1.365,0-2.471-0.117-2.471-0.26
				s1.106-0.26,2.471-0.26C74.717,95.463,75.823,95.579,75.823,95.723z"/>
		</g>
		<g>
			<path style="fill:#E0E0E0;" d="M78.388,103.066c0.094,0.109-0.71,0.906-1.796,1.781c-1.087,0.875-2.037,1.491-2.123,1.376
				c-0.086-0.115,0.718-0.913,1.796-1.781C77.344,103.574,78.294,102.958,78.388,103.066z"/>
		</g>
		<g>
			<path style="fill:#E0E0E0;" d="M84.718,108.746c0.118,0.087-0.458,1.066-1.174,2.261c-0.719,1.193-1.313,2.162-1.445,2.098
				c-0.127-0.06,0.266-1.15,0.999-2.366C83.827,109.52,84.605,108.661,84.718,108.746z"/>
		</g>
		<g>
			<path style="fill:#E0E0E0;" d="M92.043,116.071c-0.144,0-0.26-1.171-0.26-2.616c0-1.445,0.117-2.616,0.26-2.616
				c0.144,0,0.26,1.171,0.26,2.616C92.303,114.899,92.187,116.071,92.043,116.071z"/>
		</g>
		<g>
			<path style="fill:#E0E0E0;" d="M103.32,112.585c-0.075,0.118-1.132-0.432-2.231-1.393c-1.102-0.957-1.791-1.929-1.684-2.02
				c0.111-0.097,0.955,0.697,2.027,1.628C102.498,111.734,103.401,112.462,103.32,112.585z"/>
		</g>
		<g>
			<path style="fill:#E0E0E0;" d="M108.612,106.885c-0.102,0.102-0.913-0.545-1.812-1.444c-0.899-0.899-1.546-1.71-1.444-1.812
				s0.913,0.545,1.812,1.444C108.067,105.972,108.713,106.784,108.612,106.885z"/>
		</g>
		<g>
			<path style="fill:#E0E0E0;" d="M78.148,88.688c-0.102,0.102-0.822-0.453-1.608-1.24c-0.787-0.787-1.342-1.507-1.24-1.609
				c0.102-0.102,0.822,0.454,1.608,1.24C77.695,87.867,78.25,88.587,78.148,88.688z"/>
		</g>
		<g>
			<path style="fill:#E0E0E0;" d="M84.68,81.808c-0.102,0.102-0.81-0.439-1.582-1.207c-0.772-0.769-1.316-1.475-1.215-1.577
				c0.101-0.102,0.81,0.439,1.582,1.208C84.237,81.001,84.781,81.706,84.68,81.808z"/>
		</g>
	</g>
	<g>
		<g>
			<g>
				<path style="fill:#F0F0F0;" d="M139.527,445.768c13.723-8.002,18.05-24.592,18.779-39.763c0.122-2.532,0.618-5.172-0.401-7.487
					c-1.02-2.314-3.699-4.059-6.047-3.18c-1.948,0.729-2.944,2.843-4.142,4.561c-1.593,2.286-3.836,4.102-6.387,5.171
					c-1.677,0.702-3.708,1.049-5.224,0.043c-2.08-1.381-2.089-4.411-1.868-6.922c0.414-4.679,0.827-9.358,1.241-14.037
					c0.222-2.51,0.44-5.074-0.146-7.522c-0.585-2.448-2.13-4.804-4.464-5.67c-2.335-0.865-5.403,0.27-6.109,2.687
					c-0.294,1.006-0.173,2.085-0.328,3.122c-0.155,1.037-0.736,2.151-1.75,2.36c-1.027,0.212-1.973-0.582-2.664-1.379
					c-2.384-2.749-3.875-6.16-5.253-9.545c-1.377-3.384-2.7-6.841-4.826-9.801c-2.125-2.959-5.199-5.419-8.779-5.918
					c-3.581-0.499-7.596,1.407-8.795,4.863c-1.202,3.466,0.569,7.229,2.581,10.28c2.986,4.527,6.623,8.612,10.76,12.086
					c0.746,0.627,1.554,1.305,1.78,2.26c0.408,1.719-1.315,3.252-3.014,3.667c-1.924,0.47-3.939,0.109-5.916,0.178
					c-1.977,0.07-4.17,0.759-5.063,2.55c-1.24,2.483,0.687,5.35,2.655,7.286c3.941,3.877,8.543,7.062,13.541,9.373
					c1.792,0.828,3.688,1.581,5.071,3.001c1.383,1.421-1.306,5.826-2.351,7.521c-1.046,1.698,0,0-1.906-0.518
					c-1.905-0.517-3.552-1.711-5.339-2.558c-3.345-1.586-7.822-1.714-10.278,1.087c-1.614,1.842-1.966,4.562-1.423,6.96
					c0.543,2.398,1.868,4.534,3.298,6.52c4.999,6.945,11.653,12.752,19.433,16.186C123.972,446.664,131.33,448.025,139.527,445.768"
					/>
			</g>
		</g>
		<g>
			<g>
				<g>
					<path style="fill:#E0E0E0;" d="M138.804,457.001c-0.056-6.039-0.789-13.225-2.404-21.038c-1.6-7.818-4.064-16.242-6.945-24.965
						c-0.728-2.178-1.448-4.33-2.157-6.451c-0.713-2.115-1.419-4.214-2.237-6.223c-1.619-4.027-3.482-7.774-5.362-11.276
						c-1.879-3.504-3.79-6.761-5.598-9.793c-1.816-3.03-3.562-5.822-5.262-8.298c-3.385-4.968-6.584-8.645-8.883-11.079
						c-1.147-1.222-2.068-2.14-2.7-2.754c-0.305-0.292-0.544-0.521-0.724-0.694c-0.165-0.154-0.252-0.23-0.257-0.224
						c-0.006,0.006,0.07,0.093,0.224,0.259c0.172,0.181,0.401,0.421,0.691,0.726c0.61,0.635,1.51,1.573,2.635,2.812
						c2.255,2.469,5.403,6.166,8.744,11.143c1.678,2.481,3.403,5.277,5.202,8.311c1.793,3.039,3.689,6.298,5.553,9.799
						c1.864,3.499,3.712,7.237,5.316,11.244c0.81,1.999,1.509,4.08,2.222,6.201c0.708,2.12,1.426,4.271,2.153,6.448
						c2.878,8.716,5.348,17.116,6.967,24.906c1.632,7.785,2.396,14.938,2.494,20.954"/>
				</g>
			</g>
		</g>
		<g>
			<g>
				<g>
					<path style="fill:#E0E0E0;" d="M124.931,398.296c0.031,0.008,0.147-0.367,0.333-1.051c0.189-0.683,0.429-1.68,0.709-2.917
						c0.56-2.472,1.218-5.912,1.928-9.707c0.711-3.797,1.415-7.218,2.012-9.674c0.295-1.229,0.543-2.221,0.724-2.905
						c0.177-0.685,0.26-1.069,0.23-1.079c-0.031-0.009-0.172,0.356-0.402,1.027c-0.234,0.669-0.532,1.652-0.868,2.874
						c-0.681,2.444-1.439,5.869-2.15,9.669c-0.692,3.747-1.317,7.137-1.795,9.727c-0.223,1.169-0.412,2.153-0.564,2.944
						C124.958,397.899,124.899,398.288,124.931,398.296z"/>
				</g>
			</g>
		</g>
		<g>
			<g>
				<g>
					<path style="fill:#E0E0E0;" d="M93.133,389.609c-0.004,0.032,0.452,0.123,1.275,0.26c0.823,0.142,2.014,0.341,3.478,0.633
						c2.932,0.562,6.954,1.48,11.347,2.688c4.393,1.216,8.321,2.485,11.136,3.485c1.412,0.49,2.543,0.917,3.327,1.208
						c0.783,0.294,1.222,0.442,1.235,0.413c0.012-0.03-0.404-0.235-1.167-0.582c-0.765-0.343-1.881-0.818-3.282-1.351
						c-2.794-1.083-6.72-2.406-11.126-3.626c-4.406-1.21-8.456-2.081-11.411-2.561c-1.476-0.252-2.679-0.402-3.512-0.488
						C93.599,389.607,93.137,389.576,93.133,389.609z"/>
				</g>
			</g>
		</g>
		<g>
			<g>
				<g>
					<path style="fill:#E0E0E0;" d="M136.052,435.336c0.014,0.008,0.101-0.121,0.254-0.376c0.175-0.304,0.389-0.674,0.648-1.123
						c0.559-0.978,1.33-2.414,2.26-4.2c1.862-3.572,4.278-8.586,6.87-14.155c2.594-5.572,4.96-10.602,6.745-14.207
						c0.873-1.752,1.592-3.193,2.126-4.264c0.229-0.465,0.417-0.849,0.572-1.164c0.126-0.268,0.186-0.413,0.172-0.421
						c-0.014-0.007-0.101,0.122-0.254,0.376c-0.175,0.304-0.389,0.673-0.648,1.122c-0.559,0.978-1.33,2.413-2.26,4.2
						c-1.862,3.572-4.278,8.586-6.871,14.158c-2.592,5.57-4.959,10.599-6.743,14.205c-0.874,1.751-1.592,3.193-2.126,4.263
						c-0.229,0.465-0.418,0.85-0.572,1.164C136.097,435.184,136.037,435.329,136.052,435.336z"/>
				</g>
			</g>
		</g>
		<g>
			<g>
				<g>
					<path style="fill:#E0E0E0;" d="M94.274,417.982c-0.005,0.015,0.137,0.087,0.411,0.211c0.326,0.14,0.727,0.312,1.212,0.52
						c1.12,0.468,2.633,1.099,4.473,1.866c3.777,1.577,8.968,3.815,14.701,6.295c5.734,2.482,10.951,4.674,14.762,6.173
						c1.905,0.75,3.452,1.342,4.53,1.728c0.499,0.176,0.91,0.32,1.243,0.438c0.286,0.095,0.44,0.138,0.445,0.122
						c0.005-0.015-0.137-0.087-0.411-0.211c-0.326-0.139-0.726-0.311-1.212-0.519c-1.12-0.468-2.632-1.098-4.472-1.866
						c-3.777-1.576-8.969-3.815-14.703-6.296c-5.733-2.481-10.949-4.673-14.759-6.172c-1.905-0.75-3.452-1.342-4.531-1.728
						c-0.498-0.176-0.909-0.321-1.243-0.438C94.433,418.009,94.28,417.967,94.274,417.982z"/>
				</g>
			</g>
		</g>
	</g>
	<g>
		<g>
			<g>
				<rect x="427.59" y="413.16" style="fill:#E0E0E0;" width="6.119" height="43.444"/>
			</g>
			<g>
				<rect x="405.692" y="413.16" style="fill:#E0E0E0;" width="6.119" height="43.444"/>
			</g>
			<g>
				<rect x="350.723" y="413.16" style="fill:#E0E0E0;" width="6.119" height="43.444"/>
			</g>
			<g>
				<rect x="331.887" y="413.16" style="fill:#E0E0E0;" width="6.119" height="43.444"/>
			</g>
			<g>
				<g>
					<path style="fill:#EBEBEB;" d="M351.828,338.508c0,0-16.712-4.827-21.712,2.143c-5.001,6.97-5.533,74.12-5.533,74.12
						s32.362,0.589,32.959,0C358.137,414.182,351.828,338.508,351.828,338.508z"/>
				</g>
				<g>
					<path style="fill:#EBEBEB;" d="M446.671,406.545l-1.482-127.458c-1.038-15.389-12.208-17.614-13.842-18.543
						c-6.859-3.896-72.272-6.368-77.653,8.714c-5.381,15.081,0,133.739,0,133.739L446.671,406.545z"/>
				</g>
				<g>
					<path style="fill:#EBEBEB;" d="M446.63,402.997c0,0-16.479-24.305-35.841-25.1c-19.362-0.796-61.099,0-61.099,0
						s-18.502,0.702-19.792,23.618v13.518H446.63V402.997z"/>
				</g>
				<g>
					<g>
						<path style="fill:#F0F0F0;" d="M446.135,338.608c0,0-27.723-7.173-32.737,2.264c-5.013,9.438-5.899,74.447-5.899,74.447
							s40.032,1.475,40.128-0.212C447.723,413.42,446.135,338.608,446.135,338.608z"/>
					</g>
					<g>
						<path style="fill:#E0E0E0;" d="M447.631,338.299c0,0-18.311-4.711-23.311,2.259c-5.001,6.969-6.318,75.084-6.318,75.084
							s29.221,0.862,29.818,0.273C448.416,415.326,447.631,338.299,447.631,338.299z"/>
					</g>
				</g>
			</g>
		</g>
		<g>
			<g>
				<path style="fill:#E0E0E0;" d="M433.364,336.681c-0.009,0.001-0.025-0.109-0.046-0.322c-0.021-0.242-0.049-0.554-0.083-0.948
					c-0.064-0.869-0.155-2.091-0.27-3.649c-0.214-3.206-0.519-7.784-0.896-13.428c-0.36-5.681-0.787-12.429-1.262-19.919
					c-0.232-3.75-0.475-7.685-0.727-11.763c-0.301-4.066-0.285-8.35-1.508-12.471c-0.63-2.04-1.577-3.967-2.966-5.518
					c-1.355-1.579-2.946-2.917-4.646-4.014c-3.404-2.199-7.144-3.588-10.8-4.276c-1.832-0.356-3.644-0.449-5.426-0.524
					c-1.777-0.069-3.502-0.137-5.17-0.202c-3.337-0.107-6.447-0.167-9.286-0.191c-5.678-0.045-10.273,0.075-13.442,0.256
					c-1.584,0.09-2.815,0.177-3.646,0.259c-0.394,0.033-0.706,0.059-0.948,0.08c-0.214,0.015-0.324,0.018-0.325,0.009
					c-0.001-0.009,0.107-0.03,0.319-0.062c0.24-0.033,0.551-0.077,0.943-0.131c0.829-0.116,2.059-0.236,3.644-0.357
					c3.171-0.243,7.772-0.42,13.457-0.422c2.842,0.001,5.956,0.04,9.297,0.128c1.671,0.057,3.398,0.115,5.178,0.176
					c1.772,0.066,3.631,0.154,5.492,0.509c3.72,0.687,7.518,2.084,10.992,4.32c1.734,1.116,3.364,2.482,4.761,4.105
					c1.438,1.603,2.427,3.611,3.07,5.703c1.252,4.233,1.223,8.534,1.519,12.592c0.242,4.079,0.475,8.015,0.697,11.765
					c0.433,7.492,0.822,14.243,1.15,19.925c0.307,5.648,0.556,10.23,0.73,13.438c0.074,1.561,0.131,2.785,0.172,3.655
					c0.013,0.395,0.024,0.709,0.032,0.951C433.375,336.57,433.373,336.68,433.364,336.681z"/>
			</g>
		</g>
		<g>
			<g>
				<path style="fill:#E0E0E0;" d="M434.251,281.581c0.006,0.148-1.004,0.3-2.23,0.538c-1.227,0.232-2.222,0.464-2.271,0.325
					c-0.049-0.131,0.902-0.595,2.173-0.836C433.192,281.362,434.247,281.441,434.251,281.581z"/>
			</g>
		</g>
		<g>
			<g>
				<path style="fill:#E0E0E0;" d="M436.753,284.613c-0.026,0.145-1.497-0.002-3.307-0.153c-1.81-0.155-3.285-0.257-3.286-0.404
					c-0.002-0.14,1.493-0.272,3.33-0.115C435.327,284.094,436.779,284.475,436.753,284.613z"/>
			</g>
		</g>
		<g>
			<g>
				<path style="fill:#E0E0E0;" d="M435.175,307.382c-0.008,0.144-0.872,0.21-1.929,0.148c-1.057-0.062-1.908-0.228-1.899-0.372
					c0.008-0.143,0.872-0.21,1.93-0.148C434.333,307.072,435.184,307.238,435.175,307.382z"/>
			</g>
		</g>
		<g>
			<g>
				<g>
					<path style="fill:#E0E0E0;" d="M406.505,298.665c0.047,0.087-0.879,0.179-1.465,1.295c-0.27,0.529-0.433,1.298-0.134,2.004
						c0.277,0.713,1.115,1.191,2.016,1.174c0.901-0.011,1.724-0.515,1.979-1.237c0.277-0.715,0.09-1.479-0.197-1.999
						c-0.621-1.097-1.55-1.16-1.505-1.249c0-0.023,0.215-0.061,0.579,0.056c0.362,0.112,0.855,0.425,1.241,1.001
						c0.365,0.566,0.648,1.439,0.332,2.358c-0.301,0.938-1.35,1.586-2.42,1.589c-1.069,0.03-2.138-0.586-2.467-1.513
						c-0.345-0.909-0.09-1.79,0.258-2.367c0.367-0.588,0.851-0.916,1.209-1.04C406.288,298.611,406.504,298.642,406.505,298.665z"/>
				</g>
			</g>
			<g>
				<g>
					<path style="fill:#E0E0E0;" d="M408.973,298.073c0.016,0.055-0.618,0.315-1.712,0.429c-1.088,0.119-2.641,0.022-4.232-0.544
						c-1.589-0.572-2.851-1.482-3.617-2.265c-0.773-0.783-1.098-1.386-1.051-1.418c0.068-0.053,0.494,0.463,1.3,1.147
						c0.802,0.686,2.03,1.5,3.543,2.045c1.515,0.538,2.98,0.688,4.036,0.667C408.297,298.117,408.953,297.989,408.973,298.073z"/>
				</g>
			</g>
			<g>
				<g>
					<path style="fill:#E0E0E0;" d="M402.762,314.779c-0.066,0.014-0.309-0.711-0.578-1.923c-0.251-1.201-0.557-2.96-0.128-4.874
						c0.45-1.928,1.747-3.345,2.896-3.909c1.17-0.587,2.015-0.4,1.994-0.36c0.012,0.1-0.792,0.061-1.814,0.682
						c-1.01,0.596-2.154,1.935-2.568,3.705c-0.403,1.783-0.175,3.486-0.016,4.692C402.72,314.005,402.837,314.763,402.762,314.779z"
						/>
				</g>
			</g>
			<g>
				<g>
					<path style="fill:#E0E0E0;" d="M414.367,309.246c-0.012,0.056-0.58,0-1.406-0.39c-0.822-0.383-1.864-1.163-2.661-2.316
						c-0.793-1.157-1.149-2.409-1.213-3.314c-0.069-0.91,0.081-1.461,0.138-1.452c0.086,0.006,0.07,0.556,0.227,1.403
						c0.152,0.846,0.538,1.987,1.277,3.068c0.745,1.076,1.673,1.843,2.409,2.288C413.872,308.982,414.391,309.163,414.367,309.246z"
						/>
				</g>
			</g>
		</g>
		<g>
			<g>
				<g>
					<path style="fill:#E0E0E0;" d="M375.641,298.665c0.047,0.087-0.879,0.179-1.465,1.295c-0.27,0.529-0.433,1.298-0.134,2.004
						c0.277,0.713,1.115,1.191,2.015,1.174c0.901-0.011,1.724-0.515,1.979-1.237c0.277-0.715,0.09-1.479-0.197-1.999
						c-0.621-1.097-1.55-1.16-1.505-1.249c0-0.023,0.215-0.061,0.579,0.056c0.361,0.112,0.855,0.425,1.241,1.001
						c0.365,0.566,0.648,1.439,0.331,2.358c-0.301,0.938-1.35,1.586-2.42,1.589c-1.069,0.03-2.138-0.586-2.467-1.513
						c-0.345-0.909-0.09-1.79,0.258-2.367c0.367-0.588,0.851-0.916,1.209-1.04C375.424,298.611,375.64,298.642,375.641,298.665z"/>
				</g>
			</g>
			<g>
				<g>
					<path style="fill:#E0E0E0;" d="M378.109,298.073c0.016,0.055-0.618,0.315-1.712,0.429c-1.088,0.119-2.641,0.022-4.232-0.544
						c-1.589-0.572-2.851-1.482-3.617-2.265c-0.773-0.783-1.098-1.386-1.051-1.418c0.069-0.053,0.494,0.463,1.3,1.147
						c0.802,0.686,2.03,1.5,3.543,2.045c1.515,0.538,2.98,0.688,4.036,0.667C377.434,298.117,378.089,297.989,378.109,298.073z"/>
				</g>
			</g>
			<g>
				<g>
					<path style="fill:#E0E0E0;" d="M371.899,314.779c-0.066,0.014-0.309-0.711-0.578-1.923c-0.251-1.201-0.557-2.96-0.128-4.874
						c0.45-1.928,1.747-3.345,2.896-3.909c1.17-0.587,2.015-0.4,1.994-0.36c0.012,0.1-0.791,0.061-1.814,0.682
						c-1.01,0.596-2.155,1.935-2.568,3.705c-0.403,1.783-0.175,3.486-0.016,4.692C371.857,314.005,371.974,314.763,371.899,314.779z
						"/>
				</g>
			</g>
			<g>
				<g>
					<path style="fill:#E0E0E0;" d="M383.503,309.246c-0.012,0.056-0.58,0-1.406-0.39c-0.822-0.383-1.864-1.163-2.661-2.316
						c-0.793-1.157-1.149-2.409-1.213-3.314c-0.069-0.91,0.081-1.461,0.138-1.452c0.086,0.006,0.07,0.556,0.227,1.403
						c0.152,0.846,0.538,1.987,1.277,3.068c0.745,1.076,1.673,1.843,2.409,2.288C383.009,308.982,383.527,309.163,383.503,309.246z"
						/>
				</g>
			</g>
		</g>
		<g>
			<g>
				<path style="fill:#E0E0E0;" d="M352.448,336.393c0.036,0.002,0.046,0.583,0.033,1.633c-0.023,1.14-0.052,2.637-0.088,4.444
					c-0.085,3.752-0.2,8.934-0.272,14.658c-0.071,5.726-0.086,10.91-0.094,14.662c-0.01,1.807-0.018,3.304-0.024,4.445
					c-0.013,1.05-0.037,1.63-0.073,1.631c-0.036,0.001-0.08-0.579-0.129-1.628c-0.05-1.049-0.099-2.568-0.142-4.444
					c-0.086-3.754-0.129-8.942-0.059-14.673c0.072-5.729,0.245-10.914,0.425-14.664c0.09-1.875,0.176-3.392,0.253-4.44
					C352.353,336.97,352.412,336.391,352.448,336.393z"/>
			</g>
		</g>
		<g>
			<g>
				<path style="fill:#E0E0E0;" d="M409.969,378.074c0,0.009-0.094,0.017-0.276,0.024c-0.212,0.005-0.479,0.012-0.81,0.019
					c-0.751,0.006-1.793,0.014-3.115,0.024c-2.745-0.002-6.648-0.004-11.454-0.008c-4.848-0.022-10.602-0.049-16.987-0.078
					c-3.198-0.02-6.553-0.041-10.031-0.063c-3.476-0.02-7.075-0.019-10.739,0.285c-3.66,0.3-7.215,0.927-10.485,2.041
					c-3.267,1.111-6.253,2.692-8.714,4.686c-1.23,0.995-2.326,2.092-3.261,3.261c-0.466,0.586-0.903,1.18-1.284,1.802
					c-0.405,0.606-0.758,1.23-1.088,1.853c-1.347,2.482-2.126,5.025-2.624,7.371c-0.956,4.724-0.76,8.677-0.566,11.356
					c0.103,1.346,0.224,2.388,0.314,3.094c0.038,0.329,0.069,0.594,0.093,0.805c0.018,0.182,0.023,0.276,0.014,0.277
					c-0.009,0.001-0.031-0.09-0.067-0.269c-0.038-0.209-0.085-0.472-0.144-0.798c-0.123-0.702-0.277-1.743-0.411-3.091
					c-0.257-2.684-0.514-6.658,0.407-11.447c0.481-2.378,1.251-4.965,2.603-7.499c0.332-0.636,0.687-1.272,1.095-1.892
					c0.382-0.634,0.828-1.247,1.301-1.848c0.95-1.201,2.066-2.327,3.317-3.348c2.503-2.045,5.537-3.661,8.852-4.796
					c3.32-1.139,6.917-1.775,10.607-2.077c3.693-0.306,7.307-0.302,10.786-0.276c3.478,0.033,6.833,0.064,10.031,0.094
					c6.385,0.071,12.138,0.135,16.987,0.19c4.805,0.073,8.708,0.132,11.453,0.173c1.322,0.031,2.363,0.056,3.114,0.073
					c0.331,0.013,0.597,0.024,0.81,0.032C409.875,378.056,409.969,378.065,409.969,378.074z"/>
			</g>
		</g>
	</g>
</g>
<g id="Background_Simple" style="display:none;">
	<path style="display:inline;fill:#F0F0F0;" d="M448.837,319.823c12.37-63.243-30.63-96.636-117.08-105.645
		c-95.217-9.923-63.781-70.286-112.101-103.227c-48.318-32.942-184.858,2.855-115.481,155.133
		C173.553,418.361,423.997,446.829,448.837,319.823z"/>
</g>
<g id="Floor">
	<g>
		<path style="fill:#263238;" d="M441.9,456.604c0,0.144-82.183,0.26-183.537,0.26c-101.39,0-183.555-0.117-183.555-0.26
			s82.165-0.26,183.555-0.26C359.717,456.344,441.9,456.461,441.9,456.604z"/>
	</g>
</g>
<g id="Charts">
	<g>
		<g>
			<g>
				<g>
					<path style="fill:#263238;" d="M187.282,267.125c0,0.144-6.525,0.26-14.573,0.26c-8.05,0-14.574-0.116-14.574-0.26
						c0-0.144,6.524-0.26,14.574-0.26C180.757,266.864,187.282,266.981,187.282,267.125z"/>
				</g>
			</g>
			<g>
				<g>
					<path style="fill:#263238;" d="M186.752,270.875c0,0.144-6.407,0.26-14.308,0.26c-7.904,0-14.309-0.117-14.309-0.26
						s6.405-0.26,14.309-0.26C180.346,270.615,186.752,270.731,186.752,270.875z"/>
				</g>
			</g>
			<g>
				<g>
					<path style="fill:#263238;" d="M186.752,274.626c0,0.144-6.407,0.26-14.308,0.26c-7.904,0-14.309-0.117-14.309-0.26
						c0-0.144,6.405-0.26,14.309-0.26C180.346,274.366,186.752,274.482,186.752,274.626z"/>
				</g>
			</g>
			<g>
				<g>
					<path style="fill:#263238;" d="M186.752,278.376c0,0.144-6.407,0.26-14.308,0.26c-7.904,0-14.309-0.117-14.309-0.26
						s6.405-0.26,14.309-0.26C180.346,278.116,186.752,278.233,186.752,278.376z"/>
				</g>
			</g>
			<g>
				<g>
					<path style="fill:#263238;" d="M186.752,282.127c0,0.144-6.407,0.26-14.308,0.26c-7.904,0-14.309-0.117-14.309-0.26
						c0-0.144,6.405-0.26,14.309-0.26C180.346,281.867,186.752,281.983,186.752,282.127z"/>
				</g>
			</g>
			<g>
				<g>
					<path style="fill:#263238;" d="M172.093,285.878c0,0.144-3.125,0.26-6.978,0.26c-3.855,0-6.979-0.117-6.979-0.26
						s3.124-0.26,6.979-0.26C168.968,285.617,172.093,285.734,172.093,285.878z"/>
				</g>
			</g>
			<g>
				<g>
					<path style="fill:#0033FF;" d="M180.25,263.023c0,0.144-4.971,0.26-11.101,0.26c-6.133,0-11.103-0.117-11.103-0.26
						c0-0.144,4.97-0.26,11.103-0.26C175.279,262.763,180.25,262.879,180.25,263.023z"/>
				</g>
			</g>
		</g>
		<g>
			<g>
				<path style="fill:#263238;" d="M195.003,295.228c0,0-0.017-0.279-0.025-0.795c-0.006-0.538-0.015-1.295-0.026-2.27
					c-0.014-2.002-0.033-4.895-0.058-8.57c-0.028-7.374-0.067-17.876-0.114-30.502l0.222,0.222
					c-13.296,0.011-29.123,0.024-46.067,0.039c-0.062,0.055,0.489-0.49,0.256-0.253v0.011v0.023v0.045v0.09v0.18v0.359v0.718
					l0,1.431c0,0.952,0,1.9,0,2.844c-0.001,1.888-0.001,3.76-0.002,5.612c-0.002,3.705-0.004,7.335-0.006,10.871
					c-0.008,7.071-0.016,13.768-0.024,19.946L148.931,295c13.727,0.048,25.212,0.088,33.293,0.116
					c4.029,0.026,7.208,0.046,9.406,0.06c1.074,0.012,1.907,0.021,2.497,0.027c0.27,0.005,0.482,0.01,0.647,0.013
					C194.922,295.22,194.998,295.224,195.003,295.228c0.004,0.004-0.064,0.009-0.202,0.013c-0.159,0.003-0.363,0.008-0.623,0.013
					c-0.58,0.006-1.398,0.015-2.453,0.027c-2.187,0.014-5.348,0.034-9.355,0.06c-8.116,0.028-19.652,0.068-33.439,0.116
					l-0.228,0.001l0-0.229c-0.007-6.178-0.015-12.875-0.024-19.946c-0.002-3.536-0.004-7.166-0.006-10.871
					c-0.001-1.853-0.001-3.724-0.002-5.612c0-0.944,0-1.892,0-2.844l0-1.431v-0.718v-0.359v-0.18v-0.09v-0.045v-0.023v-0.011
					c-0.233,0.229,0.316-0.326,0.265-0.267c16.944,0.014,32.771,0.027,46.067,0.039l0.223,0l-0.001,0.222
					c-0.047,12.683-0.086,23.235-0.114,30.643c-0.025,3.653-0.044,6.53-0.058,8.52c-0.011,0.957-0.02,1.7-0.026,2.228
					C195.019,294.982,195.003,295.228,195.003,295.228z"/>
			</g>
		</g>
	</g>
	<g>
		<g>
			<g>
				<g>
					<path style="fill:#0033FF;" d="M166.499,139.122l22.146-0.144c-0.037-6.522-2.617-13.171-7.123-18.27
						c-5.309-6.006-13.29-9.853-22.936-8.804c-1.054,0.114-2.125,0.282-3.217,0.517c-0.026,0.006-0.051,0.009-0.078,0.014
						l0.001,0.003l6.004,26.684H166.499z"/>
				</g>
			</g>
			<g>
				<g>
					<path style="fill:#455A64;" d="M173.316,166.624c7.788-3.73,14.028-11.076,15.077-21.537c0.028-0.28,0.054-0.561,0.074-0.845
						c0.013-0.18,0.031-0.356,0.041-0.538c0.029-0.528,0.044-1.064,0.047-1.607c0-0.025,0.002-0.049,0.002-0.073
						c0-0.001,0-0.003,0-0.004c0-0.023,0.002-0.045,0.002-0.067h-0.004h-0.001l-22.145,0.144l-5.204,0.034l-5.824,26.692
						l-0.007,0.033h0c1.87,0.408,3.799,0.602,5.742,0.592C165.267,169.428,169.477,168.463,173.316,166.624z"/>
				</g>
			</g>
		</g>
		<g>
			<g>
				<path style="fill:#263238;" d="M158.531,140.552l-6.004-26.684c-12.217,2.738-21.349,13.641-21.349,26.684
					c0,13.107,9.221,24.055,21.529,26.726l5.824-26.692"/>
			</g>
		</g>
	</g>
	<g>
		<g>
			<g>
				<g>
					<g>
						<rect x="92.502" y="258.318" style="fill:#0033FF;" width="5.992" height="45.232"/>
					</g>
				</g>
				<g>
					<g>
						<rect x="83.269" y="277.353" style="fill:#455A64;" width="5.992" height="26.197"/>
					</g>
				</g>
				<g>
					<g>
						<rect x="74.036" y="273.266" style="fill:#0033FF;" width="5.992" height="30.284"/>
					</g>
				</g>
				<g>
					<g>
						<rect x="64.803" y="291.34" style="fill:#455A64;" width="5.992" height="12.21"/>
					</g>
				</g>
				<g>
					<g>
						<rect x="110.969" y="248.438" style="fill:#0033FF;" width="5.992" height="55.112"/>
					</g>
				</g>
				<g>
					<g>
						<rect x="101.736" y="253.473" style="fill:#455A64;" width="5.992" height="50.077"/>
					</g>
				</g>
				<g>
					<g>
						<rect x="129.435" y="242.981" style="fill:#0033FF;" width="5.992" height="60.569"/>
					</g>
				</g>
				<g>
					<g>
						<rect x="120.202" y="231.02" style="fill:#455A64;" width="5.992" height="72.53"/>
					</g>
				</g>
			</g>
		</g>
		<g>
			<g>
				<path style="fill:#263238;" d="M70.641,309.228c0,0.144-1.187,0.26-2.65,0.26c-1.464,0-2.65-0.117-2.65-0.26
					s1.186-0.26,2.65-0.26C69.455,308.967,70.641,309.084,70.641,309.228z"/>
			</g>
		</g>
		<g>
			<g>
				<path style="fill:#263238;" d="M79.743,309.228c0,0.144-1.187,0.26-2.65,0.26c-1.464,0-2.65-0.117-2.65-0.26
					s1.186-0.26,2.65-0.26C78.557,308.967,79.743,309.084,79.743,309.228z"/>
			</g>
		</g>
		<g>
			<g>
				<path style="fill:#263238;" d="M88.845,309.228c0,0.144-1.186,0.26-2.65,0.26c-1.464,0-2.65-0.117-2.65-0.26
					s1.186-0.26,2.65-0.26C87.659,308.967,88.845,309.084,88.845,309.228z"/>
			</g>
		</g>
		<g>
			<g>
				<path style="fill:#263238;" d="M97.947,309.228c0,0.144-1.187,0.26-2.65,0.26c-1.464,0-2.65-0.117-2.65-0.26
					s1.186-0.26,2.65-0.26C96.761,308.967,97.947,309.084,97.947,309.228z"/>
			</g>
		</g>
		<g>
			<g>
				<path style="fill:#263238;" d="M107.049,309.228c0,0.144-1.186,0.26-2.65,0.26c-1.464,0-2.65-0.117-2.65-0.26
					s1.186-0.26,2.65-0.26C105.863,308.967,107.049,309.084,107.049,309.228z"/>
			</g>
		</g>
		<g>
			<g>
				<path style="fill:#263238;" d="M116.151,309.228c0,0.144-1.186,0.26-2.65,0.26c-1.464,0-2.65-0.117-2.65-0.26
					s1.186-0.26,2.65-0.26C114.965,308.967,116.151,309.084,116.151,309.228z"/>
			</g>
		</g>
		<g>
			<g>
				<path style="fill:#263238;" d="M125.253,309.228c0,0.144-1.187,0.26-2.65,0.26c-1.464,0-2.65-0.117-2.65-0.26
					s1.186-0.26,2.65-0.26C124.066,308.967,125.253,309.084,125.253,309.228z"/>
			</g>
		</g>
		<g>
			<g>
				<path style="fill:#263238;" d="M134.355,309.228c0,0.144-1.186,0.26-2.65,0.26c-1.464,0-2.65-0.117-2.65-0.26
					s1.186-0.26,2.65-0.26C133.169,308.967,134.355,309.084,134.355,309.228z"/>
			</g>
		</g>
		<g>
			<g>
				<path style="fill:#263238;" d="M137.544,314.558c0,0.144-6.508,0.26-14.534,0.26c-8.029,0-14.536-0.117-14.536-0.26
					c0-0.144,6.507-0.26,14.536-0.26C131.036,314.298,137.544,314.414,137.544,314.558z"/>
			</g>
		</g>
		<g>
			<g>
				<path style="fill:#263238;" d="M120.204,317.618c0,0.144-2.283,0.26-5.1,0.26c-2.817,0-5.1-0.117-5.1-0.26s2.283-0.26,5.1-0.26
					C117.921,317.358,120.204,317.474,120.204,317.618z"/>
			</g>
		</g>
	</g>
	<g>
		<path style="fill:#263238;" d="M120.898,228.391c-0.001-0.023,0.315-0.054,0.83,0.157c0.507,0.204,1.194,0.731,1.604,1.656
			c0.197,0.458,0.33,1.017,0.262,1.62c-0.067,0.601-0.344,1.23-0.826,1.711c-0.93,0.96-2.62,1.455-4.071,0.711
			c-1.424-0.784-1.98-2.43-1.779-3.741c0.087-0.671,0.402-1.269,0.793-1.716c0.401-0.445,0.878-0.745,1.336-0.936
			c0.929-0.381,1.771-0.335,2.296-0.201c0.533,0.137,0.781,0.323,0.768,0.345c-0.018,0.042-0.292-0.077-0.805-0.146
			c-0.506-0.068-1.284-0.049-2.11,0.339c-0.813,0.369-1.673,1.197-1.803,2.381c-0.157,1.142,0.366,2.575,1.548,3.215
			c1.186,0.622,2.678,0.221,3.486-0.589c0.869-0.818,0.902-2.032,0.564-2.853c-0.326-0.846-0.91-1.372-1.353-1.614
			C121.189,228.48,120.889,228.439,120.898,228.391z"/>
		<path style="fill:#263238;" d="M125.632,145.979c0,0.011-0.118,0.022-0.349,0.033c-0.269,0.008-0.607,0.019-1.029,0.032
			c-0.955,0.014-2.287,0.034-3.992,0.059l0.124-0.124c0.081,7.089,0.136,21.212,0.136,37.442
			c-0.03,11.804-0.057,22.486-0.076,30.277c-0.035,3.837-0.063,6.959-0.083,9.175c-0.021,1.047-0.037,1.878-0.049,2.494
			c-0.017,0.57-0.035,0.87-0.053,0.87c-0.018,0-0.035-0.299-0.052-0.87c-0.012-0.616-0.028-1.448-0.049-2.494
			c-0.02-2.216-0.048-5.338-0.083-9.175c-0.02-7.791-0.047-18.473-0.076-30.277c0-16.23,0.055-30.353,0.136-37.442l0.001-0.126
			l0.123,0.002c1.705,0.025,3.037,0.045,3.992,0.059c0.422,0.013,0.76,0.024,1.029,0.032
			C125.514,145.957,125.632,145.968,125.632,145.979z"/>
	</g>
	<g>
		<g>
			<g>
				<g>
					<path style="fill:#263238;" d="M81.916,193.921c0,0.144-6.525,0.26-14.573,0.26c-8.05,0-14.574-0.117-14.574-0.26
						c0-0.144,6.524-0.26,14.574-0.26C75.391,193.661,81.916,193.777,81.916,193.921z"/>
				</g>
			</g>
			<g>
				<g>
					<path style="fill:#263238;" d="M81.386,197.672c0,0.144-6.407,0.26-14.308,0.26c-7.904,0-14.309-0.117-14.309-0.26
						c0-0.144,6.405-0.26,14.309-0.26C74.979,197.411,81.386,197.528,81.386,197.672z"/>
				</g>
			</g>
			<g>
				<g>
					<path style="fill:#263238;" d="M81.386,201.422c0,0.144-6.407,0.26-14.308,0.26c-7.904,0-14.309-0.117-14.309-0.26
						s6.405-0.26,14.309-0.26C74.979,201.162,81.386,201.279,81.386,201.422z"/>
				</g>
			</g>
			<g>
				<g>
					<path style="fill:#263238;" d="M81.386,205.173c0,0.144-6.407,0.26-14.308,0.26c-7.904,0-14.309-0.117-14.309-0.26
						c0-0.144,6.405-0.26,14.309-0.26C74.979,204.913,81.386,205.029,81.386,205.173z"/>
				</g>
			</g>
			<g>
				<g>
					<path style="fill:#263238;" d="M81.386,208.924c0,0.144-6.407,0.26-14.308,0.26c-7.904,0-14.309-0.117-14.309-0.26
						c0-0.144,6.405-0.26,14.309-0.26C74.979,208.663,81.386,208.78,81.386,208.924z"/>
				</g>
			</g>
			<g>
				<g>
					<path style="fill:#263238;" d="M66.726,212.674c0,0.144-3.125,0.26-6.978,0.26c-3.855,0-6.979-0.117-6.979-0.26
						s3.124-0.26,6.979-0.26C63.602,212.414,66.726,212.531,66.726,212.674z"/>
				</g>
			</g>
			<g>
				<g>
					<path style="fill:#0033FF;" d="M74.883,189.82c0,0.144-4.971,0.26-11.101,0.26c-6.133,0-11.102-0.117-11.102-0.26
						s4.97-0.26,11.102-0.26C69.912,189.559,74.883,189.676,74.883,189.82z"/>
				</g>
			</g>
		</g>
		<g>
			<g>
				<path style="fill:#263238;" d="M88.699,221.547c0,0-0.017-0.279-0.025-0.795c-0.006-0.538-0.015-1.295-0.026-2.27
					c-0.013-2.002-0.033-4.895-0.058-8.57c-0.027-7.374-0.067-17.877-0.114-30.502l0.222,0.222
					c-13.297,0.011-29.123,0.024-46.067,0.038c-0.062,0.055,0.489-0.49,0.256-0.253v0.011v0.023v0.045v0.09v0.18l0,0.359v0.718
					l0,1.431c0,0.952,0,1.9,0,2.844c0,1.888-0.001,3.76-0.002,5.612c-0.002,3.705-0.004,7.335-0.006,10.871
					c-0.008,7.071-0.016,13.768-0.024,19.946l-0.228-0.228c13.727,0.048,25.212,0.087,33.293,0.116
					c4.029,0.026,7.208,0.046,9.406,0.06c1.074,0.011,1.907,0.02,2.497,0.027c0.27,0.005,0.482,0.01,0.647,0.013
					C88.618,221.539,88.694,221.543,88.699,221.547c0.004,0.004-0.064,0.009-0.202,0.013c-0.159,0.003-0.363,0.008-0.623,0.013
					c-0.58,0.006-1.398,0.015-2.453,0.027c-2.187,0.014-5.348,0.034-9.355,0.06c-8.116,0.028-19.652,0.068-33.439,0.116
					l-0.228,0.001l0-0.229c-0.007-6.178-0.015-12.875-0.024-19.946c-0.002-3.536-0.004-7.166-0.006-10.871
					c-0.001-1.853-0.001-3.724-0.002-5.612c0-0.944,0-1.892,0-2.844l0-1.431v-0.718v-0.359v-0.18v-0.09v-0.045v-0.023v-0.011
					c-0.233,0.229,0.316-0.326,0.265-0.267c16.944,0.014,32.771,0.027,46.067,0.038l0.223,0l-0.001,0.222
					c-0.047,12.684-0.086,23.235-0.114,30.643c-0.025,3.653-0.044,6.53-0.058,8.52c-0.011,0.957-0.02,1.699-0.026,2.228
					C88.715,221.301,88.699,221.547,88.699,221.547z"/>
			</g>
		</g>
		<g>
			<g>
				<path style="fill:#263238;" d="M74.9,239.161c-0.144,0-0.26-3.752-0.26-8.379c0-4.629,0.117-8.38,0.26-8.38
					s0.26,3.751,0.26,8.38C75.161,235.409,75.044,239.161,74.9,239.161z"/>
			</g>
		</g>
		<g>
			<g>
				<path style="fill:#263238;" d="M76.809,235.342c0.141,0.071-0.927,1.773-1.048,4.14c-0.002,0.037-0.004,0.074-0.007,0.108
					l-0.046,0.749l-0.428-0.611c-1.395-1.994-1.782-3.941-1.654-3.962c0.145-0.048,0.737,1.761,2.08,3.663l-0.473,0.138
					c0.002-0.036,0.004-0.076,0.007-0.115C75.379,236.914,76.723,235.238,76.809,235.342z"/>
			</g>
		</g>
	</g>
	<g>
		<g>
			<g>
				<path style="fill:#263238;" d="M361.331,120.931c-0.144,0-0.26-0.673-0.26-1.502c0-0.83,0.117-1.502,0.26-1.502
					c0.144,0,0.26,0.672,0.26,1.502C361.591,120.258,361.475,120.931,361.331,120.931z"/>
			</g>
		</g>
		<g>
			<g>
				<path style="fill:#263238;" d="M361.331,126.938c-0.144,0-0.26-0.672-0.26-1.502c0-0.829,0.117-1.502,0.26-1.502
					c0.144,0,0.26,0.672,0.26,1.502C361.591,126.265,361.475,126.938,361.331,126.938z"/>
			</g>
		</g>
		<g>
			<g>
				<path style="fill:#263238;" d="M361.331,132.941c-0.144,0-0.26-0.672-0.26-1.5c0-0.829,0.117-1.501,0.26-1.501
					c0.144,0,0.26,0.672,0.26,1.501C361.591,132.269,361.475,132.941,361.331,132.941z"/>
			</g>
		</g>
		<g>
			<g>
				<path style="fill:#263238;" d="M361.331,138.934c-0.144,0-0.26-0.671-0.26-1.499c0-0.828,0.117-1.499,0.26-1.499
					c0.144,0,0.26,0.671,0.26,1.499C361.591,138.263,361.475,138.934,361.331,138.934z"/>
			</g>
		</g>
		<g>
			<g>
				<path style="fill:#263238;" d="M361.331,144.926c-0.144,0-0.26-0.671-0.26-1.497c0-0.827,0.117-1.498,0.26-1.498
					c0.144,0,0.26,0.67,0.26,1.498C361.591,144.255,361.475,144.926,361.331,144.926z"/>
			</g>
		</g>
		<g>
			<g>
				<path style="fill:#263238;" d="M361.331,150.919c-0.144,0-0.26-0.671-0.26-1.498c0-0.827,0.117-1.498,0.26-1.498
					c0.144,0,0.26,0.671,0.26,1.498C361.591,150.248,361.475,150.919,361.331,150.919z"/>
			</g>
		</g>
		<g>
			<g>
				<path style="fill:#263238;" d="M361.331,156.916c-0.144,0-0.26-0.671-0.26-1.499c0-0.828,0.117-1.499,0.26-1.499
					c0.144,0,0.26,0.671,0.26,1.499C361.591,156.245,361.475,156.916,361.331,156.916z"/>
			</g>
		</g>
		<g>
			<g>
				<path style="fill:#263238;" d="M361.331,162.913c-0.144,0-0.26-0.672-0.26-1.5c0-0.829,0.117-1.5,0.26-1.5
					c0.144,0,0.26,0.671,0.26,1.5C361.591,162.241,361.475,162.913,361.331,162.913z"/>
			</g>
		</g>
	</g>
	<g>
		<g>
			<g>
				<g>
					<g>
						<path style="fill:#455A64;" d="M395.078,110.63h-152.62c-2.186,0-3.958-1.772-3.958-3.958V46.351
							c0-2.186,1.772-3.958,3.958-3.958h152.62c2.186,0,3.958,1.772,3.958,3.958v60.321
							C399.035,108.858,397.263,110.63,395.078,110.63z"/>
					</g>
				</g>
			</g>
			<g>
				<g>
					<g>
						<path style="fill:#FAFAFA;" d="M285.686,67.74c-2.408-5.185-7.222-9.373-14.139-10.15c-0.185-0.021-0.371-0.04-0.559-0.056
							c-0.119-0.01-0.236-0.023-0.356-0.031c-0.349-0.023-0.704-0.037-1.064-0.043c-0.016,0-0.032-0.002-0.048-0.002
							c-0.001,0-0.002,0-0.002,0c-0.015,0-0.03-0.002-0.045-0.002v0.002v0l-0.078,14.661l-0.018,3.445l17.624,4.065l0.022,0.005v0
							c0.285-1.235,0.428-2.51,0.437-3.796C287.479,73.091,286.873,70.296,285.686,67.74z"/>
					</g>
				</g>
				<g>
					<path style="fill:#E0E0E0;" d="M266.694,77.472l0.039-3.243l0.078-14.661c-4.318-0.026-8.74,1.629-12.151,4.572
						c-4.018,3.467-6.627,8.721-6.008,15.114c0.061,0.628,0.155,1.267,0.279,1.916l-0.134,0.029
						c2.348,8.443,9.971,14.825,17.497,14.342c8.66-0.556,15.997-5.916,17.861-14.042L266.694,77.472z"/>
				</g>
			</g>
		</g>
		<g>
			<g>
				<g>
					<path style="fill:#263238;" d="M329.975,65.178c0,0.144-7.074,0.26-15.799,0.26c-8.728,0-15.801-0.117-15.801-0.26
						c0-0.144,7.073-0.26,15.801-0.26C322.901,64.918,329.975,65.034,329.975,65.178z"/>
				</g>
			</g>
			<g>
				<g>
					<path style="fill:#263238;" d="M329.975,71.248c0,0.144-7.074,0.26-15.799,0.26c-8.728,0-15.801-0.117-15.801-0.26
						s7.073-0.26,15.801-0.26C322.901,70.988,329.975,71.104,329.975,71.248z"/>
				</g>
			</g>
			<g>
				<g>
					<path style="fill:#263238;" d="M329.975,77.319c0,0.144-7.074,0.26-15.799,0.26c-8.728,0-15.801-0.117-15.801-0.26
						s7.073-0.26,15.801-0.26C322.901,77.058,329.975,77.175,329.975,77.319z"/>
				</g>
			</g>
			<g>
				<g>
					<path style="fill:#263238;" d="M329.975,83.389c0,0.144-7.074,0.26-15.799,0.26c-8.728,0-15.801-0.117-15.801-0.26
						c0-0.144,7.073-0.26,15.801-0.26C322.901,83.129,329.975,83.245,329.975,83.389z"/>
				</g>
			</g>
			<g>
				<g>
					<path style="fill:#263238;" d="M316.894,89.957c0,0.072-1.036,0.137-2.712,0.184c-1.676,0.047-3.99,0.076-6.547,0.076
						c-2.557,0-4.872-0.029-6.548-0.076c-1.676-0.047-2.712-0.112-2.712-0.184s1.036-0.137,2.712-0.184
						c1.676-0.047,3.991-0.076,6.548-0.076c2.556,0,4.871,0.029,6.547,0.076C315.858,89.82,316.894,89.885,316.894,89.957z"/>
				</g>
			</g>
		</g>
		<g>
			<g>
				<g>
					<g>
						<path style="fill:#E0E0E0;" d="M352.484,59.604c-0.013-0.027,0.214-0.183,0.68-0.367c0.464-0.179,1.179-0.384,2.096-0.383
							c0.229,0.001,0.469,0.014,0.718,0.047c0.125,0.016,0.252,0.036,0.38,0.062l0.048,0.01l0.006,0.001
							c-0.132-0.213,0.183,0.291,0.15,0.24l-0.001,0.003l-0.002,0.012l-0.005,0.023l-0.02,0.094l-0.04,0.191
							c-0.112,0.523-0.23,1.072-0.354,1.646c-0.264,1.181-0.549,2.459-0.849,3.807l-0.045,0.201l-0.209-0.001
							c-0.424-0.002-0.871-0.003-1.324-0.005c-1.63-0.017-3.178-0.033-4.593-0.047l-0.241-0.002l0.006-0.238
							c0.025-1.013,0.274-1.939,0.648-2.684c0.38-0.745,0.869-1.303,1.323-1.692c0.453-0.393,0.869-0.625,1.158-0.76
							C352.307,59.625,352.475,59.583,352.484,59.604c0.037,0.066-0.613,0.328-1.432,1.128c-0.822,0.773-1.701,2.255-1.69,4.171
							l-0.235-0.24c1.414,0.001,2.961,0.001,4.59,0.002c0.453,0.003,0.9,0.006,1.324,0.009l-0.253,0.2
							c0.32-1.344,0.624-2.618,0.904-3.795c0.14-0.569,0.275-1.115,0.403-1.634l0.047-0.189l0.023-0.093l0.006-0.023l0.003-0.012
							l0.001-0.003c-0.032-0.053,0.282,0.45,0.148,0.237l-0.006-0.001l-0.044-0.011c-0.118-0.029-0.236-0.053-0.352-0.073
							c-0.232-0.04-0.456-0.064-0.672-0.076C353.508,59.135,352.509,59.698,352.484,59.604z"/>
					</g>
				</g>
			</g>
			<g>
				<path style="fill:#FAFAFA;" d="M355.664,65.808l-1.059-0.013l-4.79-0.026c-0.009,1.41,0.532,2.855,1.494,3.969
					c1.133,1.313,2.849,2.165,4.938,1.963c0.205-0.02,0.414-0.05,0.626-0.091l0.009,0.044c2.758-0.767,4.843-3.257,4.685-5.716
					c-0.182-2.829-1.933-5.226-4.587-5.835L355.664,65.808z"/>
			</g>
		</g>
		<g>
			<g>
				<g>
					<path style="fill:#FAFAFA;" d="M352.484,81.129c-1.694,0.787-3.062,2.359-3.316,4.619c-0.007,0.06-0.013,0.121-0.018,0.182
						c-0.003,0.039-0.008,0.077-0.01,0.116c-0.008,0.114-0.012,0.23-0.014,0.347c0,0.005-0.001,0.011-0.001,0.016
						c0,0,0,0.001,0,0.001c0,0.005-0.001,0.01-0.001,0.015h0.001h0l4.79,0.026l1.126,0.006l1.328-5.757l0.002-0.007l0,0
						c-0.403-0.093-0.82-0.14-1.24-0.143C354.232,80.543,353.319,80.741,352.484,81.129z"/>
				</g>
			</g>
			<g>
				<g>
					<path style="fill:#E0E0E0;" d="M355.664,87.333c-0.023-0.029,0.08-0.602,0.276-1.599c0.222-1.073,0.51-2.468,0.857-4.147
						l0.036-0.177l0.188,0.036c1.726,0.335,3.609,1.767,4.373,3.982c0.366,1.078,0.606,2.337,0.245,3.591
						c-0.352,1.232-1.159,2.341-2.212,3.157c-0.751,0.584-1.605,1.003-2.478,1.252l-0.264,0.075l-0.057-0.27l-0.009-0.044l0.3,0.199
						c-1.033,0.195-2.095,0.154-3.048-0.148c-0.955-0.297-1.786-0.837-2.428-1.491c-1.295-1.315-1.846-3.019-1.817-4.456
						l0.004-0.191l0.185,0.005c1.733,0.043,3.172,0.079,4.28,0.107C355.095,87.249,355.625,87.311,355.664,87.333
						c0.039,0.025-0.548,0.064-1.57,0.088c-1.107,0.016-2.547,0.036-4.28,0.061l0.188-0.186c0.007,1.341,0.556,2.924,1.772,4.124
						c1.188,1.219,3.12,1.871,5.049,1.463l0.247-0.052l0.054,0.252l0.009,0.044l-0.321-0.195c0.807-0.234,1.599-0.624,2.296-1.166
						c0.978-0.756,1.719-1.781,2.041-2.886c0.33-1.1,0.124-2.271-0.208-3.29c-0.693-2.073-2.399-3.418-4.003-3.778l0.224-0.14
						c-0.438,1.793-0.809,3.227-1.068,4.2C355.835,86.845,355.686,87.362,355.664,87.333z"/>
				</g>
			</g>
		</g>
		<g>
			<g>
				<g>
					<path style="fill:#263238;" d="M387.533,84.205c0,0.144-4.48,0.26-10.005,0.26c-5.527,0-10.006-0.117-10.006-0.26
						s4.479-0.26,10.006-0.26C383.052,83.945,387.533,84.061,387.533,84.205z"/>
				</g>
			</g>
			<g>
				<g>
					<path style="fill:#263238;" d="M377.527,86.878c0,0.144-2.24,0.26-5.003,0.26c-2.764,0-5.003-0.117-5.003-0.26
						c0-0.144,2.24-0.26,5.003-0.26C375.287,86.617,377.527,86.734,377.527,86.878z"/>
				</g>
			</g>
		</g>
		<g>
			<g>
				<g>
					<path style="fill:#263238;" d="M387.533,62.695c0,0.144-4.48,0.26-10.005,0.26c-5.527,0-10.006-0.117-10.006-0.26
						s4.479-0.26,10.006-0.26C383.052,62.435,387.533,62.551,387.533,62.695z"/>
				</g>
			</g>
			<g>
				<g>
					<path style="fill:#263238;" d="M377.527,65.368c0,0.144-2.24,0.26-5.003,0.26c-2.764,0-5.003-0.117-5.003-0.26
						s2.24-0.26,5.003-0.26C375.287,65.107,377.527,65.224,377.527,65.368z"/>
				</g>
			</g>
		</g>
		<g>
			<g>
				<path style="fill:#263238;" d="M339.866,101.278c-0.144,0-0.26-12.04-0.26-26.888c0-14.853,0.117-26.891,0.26-26.891
					c0.144,0,0.26,12.037,0.26,26.891C340.126,89.239,340.01,101.278,339.866,101.278z"/>
			</g>
		</g>
	</g>
	<g>
		<g>
			<rect x="331.38" y="168.133" style="fill:#0033FF;" width="6.196" height="55.941"/>
		</g>
		<g>
			<rect x="343.342" y="187.132" style="fill:#0033FF;" width="6.196" height="36.941"/>
		</g>
		<g>
			<rect x="355.304" y="175.086" style="fill:#0033FF;" width="6.196" height="49.272"/>
		</g>
		<g>
			<rect x="367.266" y="170.293" style="fill:#0033FF;" width="6.196" height="53.781"/>
		</g>
		<g>
			<rect x="379.228" y="188.27" style="fill:#0033FF;" width="6.196" height="35.804"/>
		</g>
		<g>
			<rect x="391.189" y="195.291" style="fill:#0033FF;" width="6.196" height="28.782"/>
		</g>
		<g>
			<rect x="403.151" y="173.874" style="fill:#0033FF;" width="6.196" height="50.199"/>
		</g>
		<g>
			<rect x="415.113" y="182.925" style="fill:#0033FF;" width="6.196" height="41.149"/>
		</g>
		<g>
			<rect x="427.075" y="175.693" style="fill:#0033FF;" width="6.196" height="48.381"/>
		</g>
		<g>
			<rect x="439.037" y="191.113" style="fill:#0033FF;" width="6.196" height="32.961"/>
		</g>
		<g>
			<rect x="450.999" y="184.84" style="fill:#0033FF;" width="6.196" height="39.233"/>
		</g>
		<g>
			<g>
				<path style="fill:#263238;" d="M453.358,180.816c-0.002,0.009-0.129-0.005-0.373-0.042c-0.27-0.043-0.628-0.1-1.084-0.173
					c-0.473-0.092-1.065-0.167-1.767-0.23c-0.351-0.037-0.728-0.077-1.13-0.119c-0.406-0.018-0.837-0.037-1.293-0.057
					c-1.824-0.086-4.071-0.026-6.637,0.36c-2.564,0.378-5.453,1.081-8.477,2.307c-3.017,1.225-6.191,2.955-9.143,5.404
					c-2.996,2.402-5.611,5.595-8.183,9.074c-2.6,3.445-5.254,7.234-8.936,10.285c-1.822,1.526-3.897,2.847-6.201,3.748
					c-2.303,0.887-4.873,1.271-7.399,0.911c-2.538-0.308-4.89-1.355-6.976-2.648c-2.071-1.337-3.914-2.936-5.534-4.671
					c-3.273-3.465-5.651-7.395-8.157-10.913c-2.481-3.533-5.091-6.753-8.147-9.069c-1.511-1.176-3.157-2.031-4.785-2.722
					c-1.646-0.661-3.308-1.069-4.914-1.322c-3.222-0.479-6.209-0.199-8.724,0.377c-2.525,0.585-4.578,1.509-6.173,2.391
					c-1.562,0.943-2.694,1.808-3.411,2.448c-0.341,0.309-0.61,0.553-0.812,0.736c-0.185,0.164-0.283,0.245-0.29,0.239
					s0.079-0.1,0.252-0.277c0.194-0.193,0.452-0.45,0.779-0.777c0.699-0.669,1.818-1.566,3.379-2.545
					c1.594-0.918,3.658-1.881,6.208-2.5c2.539-0.61,5.565-0.921,8.843-0.458c1.633,0.245,3.328,0.649,5.01,1.313
					c1.663,0.692,3.354,1.562,4.897,2.751c3.124,2.343,5.777,5.598,8.279,9.136c2.526,3.527,4.905,7.433,8.136,10.84
					c1.601,1.71,3.415,3.277,5.44,4.583c2.039,1.26,4.321,2.273,6.768,2.569c2.436,0.347,4.907-0.02,7.145-0.878
					c2.237-0.873,4.268-2.16,6.061-3.657c3.619-2.988,6.263-6.736,8.878-10.181c1.305-1.731,2.602-3.41,3.968-4.958
					c0.689-0.767,1.371-1.525,2.11-2.203c0.365-0.343,0.728-0.684,1.088-1.021c0.37-0.326,0.756-0.627,1.128-0.938
					c3.002-2.465,6.222-4.195,9.278-5.41c3.064-1.216,5.985-1.901,8.573-2.254c2.59-0.362,4.854-0.392,6.687-0.274
					c0.458,0.028,0.891,0.055,1.298,0.081c0.403,0.051,0.781,0.099,1.133,0.144c0.703,0.08,1.294,0.171,1.766,0.28
					c0.452,0.094,0.809,0.169,1.077,0.224C453.237,180.776,453.36,180.807,453.358,180.816z"/>
			</g>
		</g>
		<g>
			<g>
				<path style="fill:#263238;" d="M324.56,227.97c-0.144,0-0.261-15.952-0.261-35.625c0-19.68,0.117-35.628,0.261-35.628
					c0.144,0,0.26,15.948,0.26,35.628C324.82,212.018,324.704,227.97,324.56,227.97z"/>
			</g>
		</g>
		<g>
			<g>
				<path style="fill:#263238;" d="M459.724,227.97c0,0.144-29.39,0.26-65.636,0.26c-36.258,0-65.642-0.117-65.642-0.26
					c0-0.144,29.384-0.26,65.642-0.26C430.334,227.709,459.724,227.826,459.724,227.97z"/>
			</g>
		</g>
		<g>
			<g>
				<path style="fill:#263238;" d="M340.218,232.373c0,0.144-2.059,0.26-4.598,0.26c-2.54,0-4.598-0.117-4.598-0.26
					c0-0.144,2.058-0.26,4.598-0.26C338.159,232.113,340.218,232.229,340.218,232.373z"/>
			</g>
		</g>
		<g>
			<g>
				<path style="fill:#263238;" d="M355.47,232.597c0,0.144-2.46,0.26-5.495,0.26c-3.036,0-5.496-0.117-5.496-0.26
					c0-0.144,2.46-0.26,5.496-0.26C353.01,232.337,355.47,232.453,355.47,232.597z"/>
			</g>
		</g>
		<g>
			<g>
				<path style="fill:#263238;" d="M368.479,232.597c0,0.144-2.461,0.26-5.495,0.26c-3.035,0-5.495-0.117-5.495-0.26
					c0-0.144,2.46-0.26,5.495-0.26C366.019,232.337,368.479,232.453,368.479,232.597z"/>
			</g>
		</g>
		<g>
			<g>
				<path style="fill:#263238;" d="M381.488,232.597c0,0.144-2.461,0.26-5.495,0.26c-3.036,0-5.495-0.117-5.495-0.26
					c0-0.144,2.46-0.26,5.495-0.26C379.028,232.337,381.488,232.453,381.488,232.597z"/>
			</g>
		</g>
		<g>
			<g>
				<path style="fill:#263238;" d="M394.498,232.597c0,0.144-2.46,0.26-5.495,0.26c-3.035,0-5.495-0.117-5.495-0.26
					c0-0.144,2.46-0.26,5.495-0.26C392.037,232.337,394.498,232.453,394.498,232.597z"/>
			</g>
		</g>
		<g>
			<g>
				<path style="fill:#263238;" d="M407.507,232.597c0,0.144-2.46,0.26-5.495,0.26c-3.035,0-5.495-0.117-5.495-0.26
					c0-0.144,2.46-0.26,5.495-0.26C405.046,232.337,407.507,232.453,407.507,232.597z"/>
			</g>
		</g>
		<g>
			<g>
				<path style="fill:#263238;" d="M420.516,232.597c0,0.144-2.461,0.26-5.495,0.26c-3.036,0-5.496-0.117-5.496-0.26
					c0-0.144,2.46-0.26,5.496-0.26C418.055,232.337,420.516,232.453,420.516,232.597z"/>
			</g>
		</g>
		<g>
			<g>
				<path style="fill:#263238;" d="M433.525,232.597c0,0.144-2.461,0.26-5.495,0.26c-3.036,0-5.496-0.117-5.496-0.26
					c0-0.144,2.46-0.26,5.496-0.26C431.065,232.337,433.525,232.453,433.525,232.597z"/>
			</g>
		</g>
		<g>
			<g>
				<path style="fill:#263238;" d="M446.534,232.597c0,0.144-2.461,0.26-5.495,0.26c-3.035,0-5.495-0.117-5.495-0.26
					c0-0.144,2.46-0.26,5.495-0.26C444.074,232.337,446.534,232.453,446.534,232.597z"/>
			</g>
		</g>
		<g>
			<g>
				<path style="fill:#263238;" d="M459.543,232.597c0,0.144-2.461,0.26-5.495,0.26c-3.036,0-5.496-0.117-5.496-0.26
					c0-0.144,2.46-0.26,5.496-0.26C457.083,232.337,459.543,232.453,459.543,232.597z"/>
			</g>
		</g>
		<g>
			<g>
				<path style="fill:#263238;" d="M373.726,194.705c-0.011-0.069,0.537,0.017,0.745,0.724c0.087,0.327,0.087,0.8-0.246,1.198
					c-0.332,0.412-0.994,0.501-1.49,0.265c-0.505-0.214-0.879-0.768-0.791-1.291c0.077-0.513,0.431-0.827,0.734-0.979
					c0.668-0.313,1.095,0.04,1.036,0.077c-0.024,0.076-0.406-0.071-0.852,0.242c-0.21,0.148-0.422,0.41-0.441,0.71
					c-0.03,0.295,0.184,0.609,0.527,0.765c0.344,0.153,0.721,0.105,0.922-0.114c0.212-0.213,0.268-0.545,0.239-0.801
					C374.048,194.962,373.685,194.774,373.726,194.705z"/>
			</g>
		</g>
		<g>
			<g>
				<path style="fill:#263238;" d="M433.611,181.2c0-0.031,0.124-0.074,0.352-0.035c0.223,0.04,0.551,0.186,0.814,0.521
					c0.261,0.315,0.461,0.886,0.22,1.456c-0.236,0.545-0.821,0.979-1.519,0.977c-0.73-0.004-1.262-0.582-1.415-1.119
					c-0.182-0.553-0.004-1.136,0.294-1.437c0.612-0.619,1.195-0.521,1.178-0.472c0.03,0.081-0.488,0.158-0.891,0.702
					c-0.196,0.267-0.273,0.654-0.126,1.055c0.142,0.392,0.511,0.753,0.968,0.75c0.46,0.007,0.902-0.297,1.074-0.654
					c0.179-0.359,0.09-0.768-0.084-1.047C434.115,181.309,433.591,181.281,433.611,181.2z"/>
			</g>
		</g>
		<g>
			<g>
				<g>
					<ellipse style="fill:#263238;" cx="434.582" cy="154.332" rx="0.26" ry="0.75"/>
				</g>
			</g>
			<g>
				<g>
					<path style="fill:#263238;" d="M434.582,161.591c-0.144,0-0.26-0.729-0.26-1.627c0-0.899,0.117-1.627,0.26-1.627
						c0.144,0,0.26,0.728,0.26,1.627C434.842,160.863,434.725,161.591,434.582,161.591z"/>
				</g>
			</g>
			<g>
				<g>
					<path style="fill:#263238;" d="M434.582,168.1c-0.144,0-0.26-0.729-0.26-1.627c0-0.899,0.117-1.627,0.26-1.627
						c0.144,0,0.26,0.729,0.26,1.627C434.842,167.372,434.725,168.1,434.582,168.1z"/>
				</g>
			</g>
			<g>
				<g>
					<path style="fill:#263238;" d="M434.582,174.609c-0.144,0-0.26-0.729-0.26-1.627c0-0.899,0.117-1.627,0.26-1.627
						c0.144,0,0.26,0.729,0.26,1.627C434.842,173.881,434.725,174.609,434.582,174.609z"/>
				</g>
			</g>
			<g>
				<g>
					<path style="fill:#263238;" d="M434.582,179.364c-0.144,0-0.26-0.336-0.26-0.75c0-0.414,0.117-0.75,0.26-0.75
						c0.144,0,0.26,0.336,0.26,0.75C434.842,179.028,434.725,179.364,434.582,179.364z"/>
				</g>
			</g>
		</g>
		<g>
			<g>
				<path style="fill:#263238;" d="M478.664,144.759c0,0.144-10.164,0.26-22.699,0.26c-12.539,0-22.701-0.117-22.701-0.26
					s10.162-0.26,22.701-0.26C468.5,144.499,478.664,144.615,478.664,144.759z"/>
			</g>
		</g>
		<g>
			<g>
				<path style="fill:#263238;" d="M463.158,139.62c0,0.144-6.54,0.26-14.605,0.26c-8.068,0-14.606-0.117-14.606-0.26
					c0-0.144,6.538-0.26,14.606-0.26C456.619,139.36,463.158,139.477,463.158,139.62z"/>
			</g>
		</g>
	</g>
	<g>
		<path style="fill:#263238;" d="M165.588,109.129c0.144,0,0.26,0.336,0.26,0.75c0,0.414-0.117,0.75-0.26,0.75
			s-0.26-0.336-0.26-0.75C165.328,109.465,165.445,109.129,165.588,109.129z"/>
		<path style="fill:#263238;" d="M165.588,103.338c0.144,0,0.26,0.648,0.26,1.448c0,0.8-0.117,1.448-0.26,1.448
			s-0.26-0.648-0.26-1.448C165.328,103.986,165.445,103.338,165.588,103.338z"/>
		<path style="fill:#263238;" d="M165.588,97.545c0.144,0,0.26,0.648,0.26,1.447c0,0.799-0.117,1.447-0.26,1.447
			s-0.26-0.648-0.26-1.447C165.328,98.193,165.445,97.545,165.588,97.545z"/>
		<path style="fill:#263238;" d="M165.588,91.76c0.144,0,0.26,0.648,0.26,1.447c0,0.799-0.117,1.447-0.26,1.447
			s-0.26-0.648-0.26-1.447C165.328,92.407,165.445,91.76,165.588,91.76z"/>
		<ellipse style="fill:#263238;" cx="165.588" cy="87.421" rx="0.26" ry="1.445"/>
		<path style="fill:#263238;" d="M165.588,80.188c0.144,0,0.26,0.648,0.26,1.447c0,0.799-0.117,1.447-0.26,1.447
			s-0.26-0.648-0.26-1.447C165.328,80.836,165.445,80.188,165.588,80.188z"/>
		<path style="fill:#263238;" d="M165.588,75.787c0.144,0,0.26,0.336,0.26,0.75c0,0.414-0.117,0.75-0.26,0.75s-0.26-0.336-0.26-0.75
			C165.328,76.123,165.445,75.787,165.588,75.787z"/>
		<path style="fill:#263238;" d="M167.089,74.38c0,0.144-0.336,0.261-0.75,0.261c-0.414,0-0.75-0.117-0.75-0.261
			c0-0.144,0.336-0.26,0.75-0.26C166.753,74.12,167.089,74.236,167.089,74.38z"/>
		<path style="fill:#263238;" d="M173.25,74.38c0,0.144-0.69,0.261-1.54,0.261c-0.851,0-1.54-0.117-1.54-0.261
			c0-0.144,0.689-0.26,1.54-0.26C172.56,74.12,173.25,74.236,173.25,74.38z"/>
		<path style="fill:#263238;" d="M179.41,74.38c0,0.144-0.689,0.261-1.54,0.261c-0.851,0-1.54-0.117-1.54-0.261
			c0-0.144,0.689-0.26,1.54-0.26C178.721,74.12,179.41,74.236,179.41,74.38z"/>
		<path style="fill:#263238;" d="M185.57,74.38c0,0.144-0.689,0.261-1.54,0.261c-0.851,0-1.54-0.117-1.54-0.261
			c0-0.144,0.689-0.26,1.54-0.26C184.88,74.12,185.57,74.236,185.57,74.38z"/>
		<path style="fill:#263238;" d="M191.719,74.38c0,0.144-0.688,0.261-1.537,0.261c-0.849,0-1.537-0.117-1.537-0.261
			c0-0.144,0.688-0.26,1.537-0.26C191.031,74.12,191.719,74.236,191.719,74.38z"/>
		<path style="fill:#263238;" d="M197.872,74.38c0,0.144-0.689,0.261-1.538,0.261c-0.85,0-1.539-0.117-1.539-0.261
			c0-0.144,0.689-0.26,1.539-0.26C197.183,74.12,197.872,74.236,197.872,74.38z"/>
		<path style="fill:#263238;" d="M204.023,74.38c0,0.144-0.688,0.261-1.537,0.261c-0.849,0-1.538-0.117-1.538-0.261
			c0-0.144,0.688-0.26,1.538-0.26C203.335,74.12,204.023,74.236,204.023,74.38z"/>
		<path style="fill:#263238;" d="M210.176,74.38c0,0.144-0.689,0.261-1.538,0.261c-0.85,0-1.539-0.117-1.539-0.261
			c0-0.144,0.689-0.26,1.539-0.26C209.487,74.12,210.176,74.236,210.176,74.38z"/>
		<path style="fill:#263238;" d="M216.331,74.38c0,0.144-0.689,0.261-1.538,0.261c-0.85,0-1.538-0.117-1.538-0.261
			c0-0.144,0.689-0.26,1.538-0.26C215.642,74.12,216.331,74.236,216.331,74.38z"/>
		<path style="fill:#263238;" d="M222.485,74.38c0,0.144-0.689,0.261-1.538,0.261c-0.849,0-1.538-0.117-1.538-0.261
			c0-0.144,0.689-0.26,1.538-0.26C221.796,74.12,222.485,74.236,222.485,74.38z"/>
		<path style="fill:#263238;" d="M228.638,74.38c0,0.144-0.689,0.261-1.538,0.261c-0.85,0-1.538-0.117-1.538-0.261
			c0-0.144,0.688-0.26,1.538-0.26C227.95,74.12,228.638,74.236,228.638,74.38z"/>
		<path style="fill:#263238;" d="M233.251,74.38c0,0.144-0.336,0.261-0.75,0.261c-0.414,0-0.75-0.117-0.75-0.261
			c0-0.144,0.336-0.26,0.75-0.26C232.916,74.12,233.251,74.236,233.251,74.38z"/>
	</g>
</g>
<g id="Speech_Bubble">
	<g>
		<g>
			<path style="fill:#263238;" d="M307.173,130.317h-38.487c-2.142,0-3.879,1.737-3.879,3.879v22.575
				c0,2.142,1.737,3.879,3.879,3.879h6.161v9.253l8.294-9.253h24.032c2.142,0,3.879-1.737,3.879-3.879v-22.575
				C311.053,132.054,309.316,130.317,307.173,130.317z"/>
		</g>
		<g>
			<path style="fill:#FAFAFA;" d="M283.324,145.979c0,0.887-0.719,1.606-1.606,1.606c-0.887,0-1.606-0.719-1.606-1.606
				s0.719-1.606,1.606-1.606C282.605,144.373,283.324,145.092,283.324,145.979z"/>
		</g>
		<g>
			<path style="fill:#FAFAFA;" d="M289.632,145.979c0,0.887-0.719,1.606-1.606,1.606c-0.887,0-1.606-0.719-1.606-1.606
				s0.719-1.606,1.606-1.606C288.913,144.373,289.632,145.092,289.632,145.979z"/>
		</g>
		<g>
			<path style="fill:#FAFAFA;" d="M295.748,145.979c0,0.887-0.719,1.606-1.606,1.606c-0.887,0-1.606-0.719-1.606-1.606
				s0.719-1.606,1.606-1.606C295.029,144.373,295.748,145.092,295.748,145.979z"/>
		</g>
	</g>
</g>
<g id="Character">
	<g>
		<g>
			<g>
				<path style="fill:#263238;" d="M222.07,158.419c-1.888-0.468-1.584-5.669-1.78-7.26c-0.119-0.969-0.23-2,0.189-2.882
					c0.542-1.142,1.842-1.734,3.092-1.922c1.25-0.188,2.531-0.067,3.782-0.247c2.517-0.363,4.764-1.923,7.297-2.148
					c2.066-0.184,4.198,0.594,5.661,2.066c0.873,0.879,1.537,2.003,2.61,2.622c0.95,0.548,2.091,0.623,3.141,0.937
					c2.606,0.779,4.643,3.194,4.971,5.894c0.194,1.601-0.164,3.209-0.349,4.811c-0.186,1.602-0.172,3.324,0.672,4.698
					c0.877,1.427,2.523,2.265,3.333,3.73c0.717,1.298,0.633,2.999-0.21,4.219c-0.843,1.22-2.403,1.902-3.871,1.691
					c-0.47-0.068-1.008-0.201-1.374,0.1c-0.316,0.261-0.345,0.723-0.431,1.123c-0.328,1.527-1.985,2.635-3.521,2.356
					c-1.537-0.279-2.697-1.899-2.468-3.444"/>
			</g>
			<g>
				<g>
					<g>
						<g>
							<g>
								<path style="fill:#FFBE9D;" d="M243.973,191.723l-16.559-1.322c-0.103-1.934,0.035-9.413,0.035-9.413
									s-6.89-1.071-6.975-7.959c-0.085-6.888,1.109-22.706,1.109-22.706l0,0c7.974-3.427,17.178-2.27,24.055,3.024l1.021,0.786
									L243.973,191.723z"/>
							</g>
						</g>
						<g>
							<g>
								<g>
									<path style="fill:#263238;" d="M223.169,161.519c0.409-0.371,0.44-1.004,0.069-1.413c-0.371-0.409-1.004-0.44-1.413-0.069
										c-0.409,0.371-0.44,1.004-0.069,1.413C222.127,161.86,222.76,161.891,223.169,161.519z"/>
								</g>
							</g>
							<g>
								<g>
									<g>
										<path style="fill:#263238;" d="M221.499,160.588c0.108,0.119,0.784-0.401,1.733-0.406
											c0.949-0.018,1.637,0.486,1.742,0.364c0.051-0.054-0.056-0.269-0.357-0.498c-0.295-0.227-0.801-0.446-1.393-0.439
											c-0.591,0.007-1.092,0.238-1.381,0.472C221.549,160.318,221.447,160.535,221.499,160.588z"/>
									</g>
								</g>
							</g>
						</g>
						<g>
							<g>
								<g>
									<path style="fill:#263238;" d="M232.268,160.927c-0.471,0.289-0.618,0.905-0.328,1.376c0.289,0.47,0.905,0.617,1.376,0.328
										c0.471-0.29,0.617-0.906,0.328-1.376C233.354,160.784,232.738,160.637,232.268,160.927z"/>
								</g>
							</g>
							<g>
								<g>
									<g>
										<path style="fill:#263238;" d="M231.804,161.424c0.108,0.119,0.784-0.401,1.733-0.406
											c0.949-0.019,1.637,0.485,1.742,0.364c0.051-0.054-0.056-0.269-0.357-0.498c-0.295-0.227-0.801-0.446-1.393-0.439
											c-0.591,0.007-1.092,0.238-1.381,0.472C231.854,161.153,231.752,161.371,231.804,161.424z"/>
									</g>
								</g>
							</g>
						</g>
						<g>
							<g>
								<g>
									<path style="fill:#263238;" d="M228,169.251c0.006-0.074-0.58-0.193-1.534-0.325c-0.248-0.027-0.443-0.083-0.461-0.217
										c-0.045-0.15,0.051-0.415,0.178-0.711c0.244-0.627,0.491-1.262,0.75-1.928c1.036-2.747,1.764-5.015,1.624-5.068
										c-0.139-0.053-1.092,2.131-2.129,4.877c-0.245,0.671-0.479,1.31-0.71,1.943c-0.091,0.287-0.264,0.622-0.136,1.031
										c0.069,0.205,0.264,0.353,0.428,0.396c0.164,0.05,0.304,0.05,0.423,0.055C227.395,169.341,227.993,169.325,228,169.251z"/>
								</g>
							</g>
						</g>
						<g>
							<g>
								<path style="fill:#FAFAFA;" d="M231.082,170.299c0.989-0.589-2.722,1.446-4.653,1.352c0,0,1.108,1.77,3.094,1.044
									C231.585,171.94,231.082,170.299,231.082,170.299z"/>
							</g>
						</g>
						<g>
							<g>
								<path style="fill:#EB996E;" d="M227.438,180.888c0,0,4.353,0.354,8.98-2.552c0,0-2.123,4.957-8.996,4.337L227.438,180.888z"
									/>
							</g>
						</g>
					</g>
				</g>
				<g>
					<g>
						<g>
							<path style="fill:#FFBE9D;" d="M245.605,161.214c0.136-0.083,4.886-1.623,5.498,4.211c0.612,5.834-5.483,4.522-5.51,4.356
								C245.565,169.615,245.605,161.214,245.605,161.214z"/>
						</g>
					</g>
					<g>
						<g>
							<g>
								<path style="fill:#EB996E;" d="M247.165,167.547c0.024-0.021,0.109,0.061,0.289,0.121c0.176,0.059,0.469,0.082,0.761-0.064
									c0.593-0.291,1.009-1.324,0.927-2.378c-0.041-0.533-0.205-1.027-0.437-1.425c-0.223-0.408-0.53-0.677-0.846-0.7
									c-0.316-0.039-0.516,0.17-0.571,0.342c-0.061,0.171-0.012,0.284-0.042,0.297c-0.015,0.016-0.135-0.084-0.114-0.33
									c0.012-0.118,0.066-0.263,0.191-0.39c0.128-0.129,0.328-0.208,0.547-0.208c0.453-0.016,0.901,0.355,1.156,0.793
									c0.28,0.437,0.477,0.991,0.523,1.589c0.086,1.179-0.401,2.343-1.218,2.675c-0.399,0.15-0.755,0.062-0.946-0.057
									C247.19,167.687,247.146,167.559,247.165,167.547z"/>
							</g>
						</g>
					</g>
				</g>
			</g>
			<g>
				<path style="fill:#263238;" d="M221.62,149.977c1.319,2.439,4.218,3.675,6.988,3.79c2.77,0.115,5.483-0.699,8.155-1.439
					c1.448-0.401,3.213-0.708,4.274,0.356c0.619,0.62,0.802,1.542,0.912,2.411c0.244,1.93,0.272,3.888,0.081,5.824
					c-0.076,0.775-0.186,1.569,0.009,2.323c0.195,0.754,0.786,1.469,1.563,1.535c1.215,0.102,1.957-1.272,2.368-2.42
					c0.57-1.591,1.145-3.199,1.347-4.877c0.202-1.678,0.003-3.457-0.885-4.895c-1.002-1.623-2.744-2.628-4.465-3.451
					c-3.456-1.654-7.196-2.867-11.028-2.893c-3.831-0.025-7.772,1.241-10.464,3.967"/>
			</g>
		</g>
		<g>
			<g>
				<g>
					<g>
						<g>
							<g>
								<g>
									<path style="fill:#0033FF;" d="M219.609,452.715l-0.053-9.195l17.223-0.209l0.219,13.452l-1.067,0.082
										c-4.749,0.321-24.171,1.3-27.36,0.375C205.015,456.188,219.609,452.715,219.609,452.715z"/>
								</g>
							</g>
						</g>
						<g>
							<g>
								<g>
									<path style="fill:#0033FF;" d="M230.753,456.703c0.228-1.442,1.012-2.789,2.153-3.699s2.554-1.4,4.011-1.301l0.062,4.814
										L230.753,456.703z"/>
								</g>
							</g>
						</g>
					</g>
					<g>
						<g>
							<g>
								<path style="fill:#0033FF;" d="M212.481,454.667c0,0-5.111,1.542-4.461,2.379c0.65,0.837,20.314,0.587,28.978-0.283
									l-0.032-0.384l-22.935,0.487C214.032,456.866,213.485,454.697,212.481,454.667z"/>
							</g>
						</g>
					</g>
					<g>
						<g>
							<g>
								<g>
									<path style="fill:#263238;" d="M237.237,456.364c0,0.007-0.102,0.019-0.296,0.036c-0.255,0.019-0.535,0.039-0.85,0.062
										c-0.85,0.047-1.895,0.106-3.129,0.175c-2.643,0.129-6.296,0.258-10.333,0.313c-4.038,0.054-7.694,0.023-10.339-0.035
										c-1.235-0.036-2.281-0.066-3.132-0.09c-0.316-0.015-0.596-0.027-0.851-0.039c-0.195-0.011-0.297-0.021-0.296-0.028
										c0-0.007,0.103-0.012,0.297-0.014c0.256,0,0.536,0,0.852,0c0.851,0.006,1.897,0.014,3.132,0.024
										c2.645,0.02,6.299,0.027,10.335-0.027c4.035-0.055,7.687-0.161,10.33-0.252c1.234-0.043,2.28-0.079,3.13-0.108
										c0.316-0.008,0.596-0.016,0.852-0.023C237.134,456.355,237.236,456.357,237.237,456.364z"/>
								</g>
							</g>
						</g>
					</g>
					<g>
						<g>
							<g>
								<g>
									<path style="fill:#263238;" d="M214.04,457.133c-0.064,0.009-0.122-0.738-0.604-1.487
										c-0.469-0.757-1.118-1.131-1.082-1.185c0.012-0.052,0.754,0.263,1.259,1.073
										C214.127,456.339,214.092,457.145,214.04,457.133z"/>
								</g>
							</g>
						</g>
					</g>
					<g>
						<g>
							<g>
								<g>
									<path style="fill:#263238;" d="M219.089,454.49c-0.048,0.032-0.295-0.261-0.551-0.654
										c-0.256-0.393-0.425-0.736-0.377-0.768c0.048-0.032,0.295,0.261,0.551,0.654
										C218.969,454.115,219.137,454.459,219.089,454.49z"/>
								</g>
							</g>
						</g>
					</g>
					<g>
						<g>
							<g>
								<g>
									<path style="fill:#263238;" d="M220.474,453.735c-0.038,0.043-0.312-0.135-0.612-0.397c-0.3-0.263-0.513-0.511-0.475-0.554
										c0.038-0.043,0.312,0.134,0.612,0.397C220.3,453.444,220.512,453.692,220.474,453.735z"/>
								</g>
							</g>
						</g>
					</g>
					<g>
						<g>
							<g>
								<g>
									<path style="fill:#263238;" d="M221.335,452.099c0.001,0.058-0.4,0.114-0.897,0.126c-0.497,0.012-0.901-0.025-0.902-0.083
										s0.4-0.114,0.897-0.126C220.93,452.004,221.334,452.041,221.335,452.099z"/>
								</g>
							</g>
						</g>
					</g>
					<g>
						<g>
							<g>
								<g>
									<path style="fill:#263238;" d="M221.623,450.948c0.02,0.051-0.416,0.255-0.999,0.304c-0.583,0.053-1.048-0.071-1.037-0.125
										c0.009-0.06,0.465-0.032,1.019-0.083C221.16,450.998,221.604,450.891,221.623,450.948z"/>
								</g>
							</g>
						</g>
					</g>
					<g>
						<g>
							<g>
								<g>
									<path style="fill:#263238;" d="M218.486,452.995c0.002,0.023-0.423,0.081-1.107,0.007
										c-0.341-0.037-0.746-0.112-1.182-0.245c-0.217-0.074-0.443-0.129-0.678-0.269c-0.11-0.072-0.233-0.173-0.278-0.34
										c-0.048-0.165,0.038-0.353,0.162-0.444c1.051-0.562,2.118,0.02,2.517,0.562c0.22,0.276,0.322,0.547,0.37,0.734
										c0.047,0.189,0.045,0.297,0.032,0.299c-0.039,0.015-0.08-0.435-0.516-0.938c-0.215-0.246-0.539-0.485-0.953-0.602
										c-0.392-0.111-0.949-0.135-1.318,0.107c-0.174,0.132-0.103,0.338,0.094,0.452c0.184,0.115,0.42,0.184,0.626,0.258
										c0.421,0.139,0.812,0.228,1.144,0.282C218.063,452.966,218.486,452.961,218.486,452.995z"/>
								</g>
							</g>
						</g>
					</g>
					<g>
						<g>
							<g>
								<g>
									<path style="fill:#263238;" d="M218.2,453.054c-0.016,0.012-0.183-0.268-0.137-0.767c0.024-0.245,0.11-0.536,0.292-0.812
										c0.192-0.248,0.439-0.59,0.914-0.576c0.257,0.03,0.386,0.32,0.348,0.507c-0.018,0.194-0.103,0.362-0.182,0.497
										c-0.161,0.279-0.344,0.505-0.514,0.676c-0.343,0.343-0.615,0.477-0.628,0.456c-0.02-0.027,0.218-0.201,0.519-0.556
										c0.15-0.177,0.312-0.401,0.455-0.67c0.149-0.236,0.248-0.657-0.031-0.704c-0.277-0.023-0.557,0.256-0.723,0.479
										c-0.171,0.242-0.264,0.501-0.304,0.723C218.13,452.759,218.236,453.045,218.2,453.054z"/>
								</g>
							</g>
						</g>
					</g>
					<g>
						<g>
							<g>
								<g>
									<path style="fill:#263238;" d="M236.825,451.656c-0.003,0.039-0.494-0.041-1.271,0.061c-0.77,0.095-1.838,0.426-2.762,1.18
										c-0.922,0.756-1.457,1.738-1.704,2.474c-0.254,0.742-0.273,1.238-0.312,1.234c-0.013-0.001-0.02-0.124-0.005-0.347
										c0.015-0.223,0.064-0.545,0.176-0.931c0.216-0.767,0.75-1.802,1.712-2.59c0.963-0.786,2.083-1.105,2.878-1.165
										c0.4-0.033,0.726-0.017,0.948,0.012C236.707,451.612,236.827,451.644,236.825,451.656z"/>
								</g>
							</g>
						</g>
					</g>
					<g>
						<g>
							<g>
								<g>
									<path style="fill:#263238;" d="M234.949,444.512c0.058-0.001,0.145,1.582,0.194,3.535c0.05,1.955,0.043,3.54-0.014,3.541
										c-0.058,0.001-0.145-1.581-0.194-3.536C234.885,446.099,234.892,444.513,234.949,444.512z"/>
								</g>
							</g>
						</g>
					</g>
					<g>
						<g>
							<g>
								<g>
									<path style="fill:#263238;" d="M228.564,455.052c0.008,0.054-1.112,0.252-2.511,0.282c-1.4,0.033-2.527-0.116-2.521-0.17
										c0.005-0.061,1.13-0.006,2.517-0.039C227.434,455.096,228.556,454.992,228.564,455.052z"/>
								</g>
							</g>
						</g>
					</g>
					<g>
						<g>
							<g>
								<g>
									<path style="fill:#263238;" d="M231.939,455.004c0.042,0.042-0.089,0.239-0.201,0.499
										c-0.115,0.258-0.172,0.489-0.231,0.486c-0.056,0-0.092-0.271,0.039-0.57C231.678,455.12,231.902,454.963,231.939,455.004z"
										/>
								</g>
							</g>
						</g>
					</g>
					<g>
						<g>
							<g>
								<g>
									<path style="fill:#263238;" d="M233.191,453.405c0.042,0.04-0.067,0.221-0.243,0.404c-0.176,0.183-0.352,0.299-0.394,0.259
										c-0.042-0.04,0.067-0.22,0.243-0.404C232.973,453.48,233.15,453.365,233.191,453.405z"/>
								</g>
							</g>
						</g>
					</g>
					<g>
						<g>
							<g>
								<g>
									<path style="fill:#263238;" d="M235.002,452.658c-0.011,0.059-0.24,0.059-0.492,0.152
										c-0.254,0.086-0.432,0.229-0.478,0.191c-0.047-0.031,0.095-0.278,0.409-0.387
										C234.753,452.501,235.019,452.604,235.002,452.658z"/>
								</g>
							</g>
						</g>
					</g>
					<g>
						<g>
							<g>
								<g>
									<path style="fill:#263238;" d="M236.294,452.3c0.021,0.053-0.076,0.143-0.219,0.2c-0.142,0.057-0.275,0.06-0.296,0.007
										c-0.022-0.053,0.076-0.143,0.219-0.2C236.14,452.25,236.272,452.247,236.294,452.3z"/>
								</g>
							</g>
						</g>
					</g>
				</g>
			</g>
			<g>
				<g>
					<g>
						<g>
							<g>
								<g>
									<path style="fill:#0033FF;" d="M307.627,447.962l-2.804-8.757l-16.437,5.147l3.967,12.855l1.04-0.254
										c4.615-1.169,23.381-6.267,26.125-8.135C322.577,446.734,307.627,447.962,307.627,447.962z"/>
								</g>
							</g>
						</g>
						<g>
							<g>
								<g>
									<path style="fill:#0033FF;" d="M298.271,455.212c-0.664-1.3-1.827-2.337-3.195-2.848c-1.368-0.511-2.863-0.538-4.216,0.008
										l1.435,4.595L298.271,455.212z"/>
								</g>
							</g>
						</g>
					</g>
					<g>
						<g>
							<g>
								<path style="fill:#0033FF;" d="M315.008,447.606c0,0,5.337-0.121,4.979,0.877c-0.358,0.997-19.129,6.863-27.635,8.726
									l-0.089-0.375l21.953-6.655C314.216,450.177,314.063,447.945,315.008,447.606z"/>
							</g>
						</g>
					</g>
					<g>
						<g>
							<g>
								<g>
									<path style="fill:#263238;" d="M292.002,456.903c0.002,0.007,0.102-0.013,0.292-0.058c0.248-0.061,0.52-0.129,0.827-0.205
										c0.823-0.219,1.835-0.488,3.028-0.805c2.552-0.698,6.065-1.709,9.92-2.91c3.855-1.202,7.321-2.366,9.818-3.242
										c1.163-0.417,2.148-0.77,2.949-1.058c0.296-0.112,0.558-0.211,0.797-0.302c0.181-0.071,0.275-0.112,0.273-0.118
										c-0.003-0.007-0.101,0.021-0.287,0.079c-0.243,0.079-0.509,0.166-0.81,0.264c-0.807,0.27-1.799,0.603-2.97,0.995
										c-2.508,0.84-5.979,1.981-9.832,3.183c-3.852,1.2-7.357,2.233-9.898,2.967c-1.186,0.342-2.192,0.633-3.01,0.869
										c-0.303,0.09-0.572,0.17-0.817,0.243C292.097,456.862,292,456.896,292.002,456.903z"/>
								</g>
							</g>
						</g>
					</g>
					<g>
						<g>
							<g>
								<g>
									<path style="fill:#263238;" d="M314.292,450.434c0.063-0.011-0.113-0.74,0.112-1.601c0.211-0.865,0.711-1.422,0.661-1.462
										c-0.027-0.046-0.635,0.484-0.864,1.411C313.963,449.706,314.246,450.461,314.292,450.434z"/>
								</g>
							</g>
						</g>
					</g>
					<g>
						<g>
							<g>
								<g>
									<path style="fill:#263238;" d="M308.672,449.489c0.056,0.015,0.199-0.34,0.321-0.793c0.122-0.453,0.175-0.832,0.12-0.847
										c-0.056-0.015-0.199,0.34-0.321,0.793C308.669,449.095,308.616,449.474,308.672,449.489z"/>
								</g>
							</g>
						</g>
					</g>
					<g>
						<g>
							<g>
								<g>
									<path style="fill:#263238;" d="M307.12,449.201c0.05,0.029,0.255-0.225,0.459-0.568c0.204-0.343,0.329-0.645,0.279-0.674
										c-0.05-0.029-0.255,0.225-0.459,0.568C307.196,448.869,307.071,449.171,307.12,449.201z"/>
								</g>
							</g>
						</g>
					</g>
					<g>
						<g>
							<g>
								<g>
									<path style="fill:#263238;" d="M305.794,447.912c0.017,0.055,0.416-0.016,0.892-0.159c0.476-0.143,0.848-0.304,0.832-0.359
										c-0.017-0.055-0.416,0.016-0.892,0.159C306.15,447.696,305.777,447.857,305.794,447.912z"/>
								</g>
							</g>
						</g>
					</g>
					<g>
						<g>
							<g>
								<g>
									<path style="fill:#263238;" d="M305.163,446.908c-0.003,0.055,0.474,0.113,1.044-0.021
										c0.571-0.131,0.974-0.393,0.947-0.441c-0.027-0.054-0.452,0.114-0.994,0.237
										C305.619,446.812,305.164,446.848,305.163,446.908z"/>
								</g>
							</g>
						</g>
					</g>
					<g>
						<g>
							<g>
								<g>
									<path style="fill:#263238;" d="M308.781,447.88c0.006,0.023,0.427-0.055,1.054-0.337c0.313-0.141,0.674-0.338,1.047-0.599
										c0.183-0.138,0.381-0.26,0.561-0.466c0.083-0.103,0.168-0.237,0.159-0.41c-0.006-0.172-0.146-0.323-0.292-0.372
										c-1.173-0.207-2.007,0.676-2.219,1.315c-0.123,0.331-0.136,0.62-0.124,0.813c0.014,0.194,0.05,0.296,0.062,0.294
										c0.042,0.002-0.059-0.438,0.2-1.052c0.128-0.301,0.361-0.628,0.719-0.868c0.338-0.227,0.86-0.423,1.286-0.308
										c0.207,0.072,0.203,0.289,0.051,0.459c-0.139,0.167-0.342,0.305-0.515,0.439c-0.357,0.263-0.701,0.468-0.999,0.623
										C309.173,447.721,308.771,447.848,308.781,447.88z"/>
								</g>
							</g>
						</g>
					</g>
					<g>
						<g>
							<g>
								<g>
									<path style="fill:#263238;" d="M309.071,447.847c0.019,0.007,0.09-0.312-0.107-0.772c-0.099-0.225-0.271-0.475-0.53-0.682
										c-0.26-0.176-0.601-0.424-1.048-0.264c-0.235,0.108-0.268,0.424-0.173,0.59c0.077,0.179,0.21,0.312,0.327,0.416
										c0.239,0.215,0.484,0.373,0.699,0.483c0.432,0.22,0.733,0.262,0.738,0.239c0.01-0.031-0.27-0.124-0.665-0.367
										c-0.197-0.122-0.421-0.285-0.64-0.496c-0.215-0.178-0.439-0.548-0.19-0.679c0.257-0.108,0.609,0.071,0.836,0.231
										c0.237,0.177,0.407,0.394,0.513,0.593C309.046,447.545,309.034,447.85,309.071,447.847z"/>
								</g>
							</g>
						</g>
					</g>
					<g>
						<g>
							<g>
								<g>
									<path style="fill:#263238;" d="M290.932,452.3c0.015,0.036,0.457-0.192,1.227-0.337c0.762-0.148,1.88-0.166,2.991,0.264
										c1.111,0.432,1.925,1.2,2.387,1.823c0.471,0.626,0.643,1.092,0.679,1.076c0.012-0.005-0.019-0.125-0.103-0.332
										c-0.083-0.207-0.23-0.499-0.456-0.831c-0.443-0.662-1.272-1.48-2.431-1.931c-1.159-0.449-2.323-0.404-3.097-0.214
										c-0.391,0.093-0.695,0.209-0.897,0.306C291.03,452.221,290.926,452.288,290.932,452.3z"/>
								</g>
							</g>
						</g>
					</g>
					<g>
						<g>
							<g>
								<g>
									<path style="fill:#263238;" d="M290.498,444.926c-0.055,0.016,0.353,1.548,0.913,3.421
										c0.559,1.874,1.058,3.378,1.113,3.362c0.055-0.017-0.353-1.548-0.913-3.422
										C291.051,446.414,290.553,444.909,290.498,444.926z"/>
								</g>
							</g>
						</g>
					</g>
					<g>
						<g>
							<g>
								<g>
									<path style="fill:#263238;" d="M299.839,452.963c0.009,0.054,1.135-0.105,2.474-0.512c1.341-0.403,2.366-0.894,2.344-0.944
										c-0.023-0.056-1.076,0.345-2.405,0.744C300.927,452.655,299.827,452.904,299.839,452.963z"/>
								</g>
							</g>
						</g>
					</g>
					<g>
						<g>
							<g>
								<g>
									<path style="fill:#263238;" d="M296.615,453.965c-0.027,0.053,0.159,0.2,0.346,0.412c0.19,0.21,0.315,0.412,0.37,0.39
										c0.053-0.017,0.003-0.286-0.214-0.529C296.9,453.994,296.638,453.914,296.615,453.965z"/>
								</g>
							</g>
						</g>
					</g>
					<g>
						<g>
							<g>
								<g>
									<path style="fill:#263238;" d="M294.929,452.833c-0.027,0.051,0.133,0.189,0.356,0.308
										c0.224,0.119,0.428,0.175,0.455,0.124c0.027-0.051-0.132-0.189-0.357-0.308
										C295.159,452.838,294.956,452.783,294.929,452.833z"/>
								</g>
							</g>
						</g>
					</g>
					<g>
						<g>
							<g>
								<g>
									<path style="fill:#263238;" d="M292.975,452.686c0.029,0.052,0.247-0.018,0.515-0.008c0.268,0.003,0.482,0.084,0.514,0.033
										c0.035-0.044-0.177-0.235-0.509-0.242C293.163,452.46,292.943,452.64,292.975,452.686z"/>
								</g>
							</g>
						</g>
					</g>
					<g>
						<g>
							<g>
								<g>
									<path style="fill:#263238;" d="M291.637,452.747c-0.004,0.058,0.117,0.112,0.27,0.123c0.153,0.01,0.28-0.028,0.284-0.086
										c0.004-0.057-0.117-0.112-0.27-0.123C291.768,452.651,291.641,452.689,291.637,452.747z"/>
								</g>
							</g>
						</g>
					</g>
				</g>
			</g>
			<g>
				<g>
					<polyline style="fill:#263238;" points="207.89,270.102 215.928,448.753 242.749,449.316 238.295,299.752 286.897,451.099 
						308.818,445.099 259.906,270.102 					"/>
				</g>
				<g>
					<polygon style="fill:#455A64;" points="285.75,450.084 287.001,452.488 310.229,445.718 308.818,441.818 					"/>
				</g>
				<g>
					<g>
						<g>
							<path style="fill:#455A64;" d="M306.139,440.926c0.138-0.041,0.346,0.247,0.465,0.644c0.119,0.397,0.104,0.752-0.034,0.793
								c-0.138,0.041-0.346-0.247-0.465-0.644C305.986,441.322,306.001,440.967,306.139,440.926z"/>
						</g>
					</g>
					<g>
						<g>
							<path style="fill:#455A64;" d="M304.399,435.125c0.138-0.041,0.444,0.574,0.684,1.375c0.24,0.801,0.323,1.484,0.186,1.525
								c-0.138,0.041-0.444-0.574-0.684-1.375C304.345,435.849,304.262,435.166,304.399,435.125z"/>
						</g>
					</g>
					<g>
						<g>
							<path style="fill:#455A64;" d="M302.66,429.324c0.138-0.041,0.444,0.574,0.684,1.375c0.24,0.801,0.323,1.484,0.186,1.525
								c-0.138,0.041-0.444-0.574-0.684-1.375C302.605,430.048,302.522,429.365,302.66,429.324z"/>
						</g>
					</g>
					<g>
						<g>
							<path style="fill:#455A64;" d="M300.92,423.523c0.138-0.041,0.444,0.574,0.684,1.375c0.24,0.801,0.323,1.484,0.185,1.525
								c-0.138,0.041-0.444-0.574-0.684-1.375C300.865,424.247,300.783,423.564,300.92,423.523z"/>
						</g>
					</g>
					<g>
						<g>
							<path style="fill:#455A64;" d="M299.181,417.722c0.138-0.041,0.444,0.574,0.684,1.375c0.24,0.801,0.323,1.484,0.185,1.525
								c-0.138,0.041-0.444-0.574-0.684-1.375C299.126,418.446,299.043,417.763,299.181,417.722z"/>
						</g>
					</g>
					<g>
						<g>
							<path style="fill:#455A64;" d="M297.441,411.921c0.138-0.041,0.444,0.575,0.684,1.375c0.24,0.801,0.323,1.484,0.185,1.525
								c-0.138,0.041-0.444-0.574-0.684-1.375C297.386,412.646,297.303,411.963,297.441,411.921z"/>
						</g>
					</g>
					<g>
						<g>
							<path style="fill:#455A64;" d="M295.701,406.12c0.138-0.041,0.444,0.575,0.684,1.375c0.24,0.801,0.323,1.484,0.186,1.525
								c-0.138,0.041-0.444-0.574-0.684-1.376C295.647,406.845,295.564,406.162,295.701,406.12z"/>
						</g>
					</g>
					<g>
						<g>
							<path style="fill:#455A64;" d="M293.962,400.319c0.138-0.041,0.444,0.575,0.684,1.375c0.24,0.801,0.323,1.484,0.186,1.525
								c-0.138,0.041-0.444-0.574-0.684-1.375C293.907,401.044,293.824,400.361,293.962,400.319z"/>
						</g>
					</g>
					<g>
						<g>
							<path style="fill:#455A64;" d="M292.222,394.519c0.138-0.041,0.444,0.575,0.684,1.375c0.24,0.801,0.323,1.484,0.185,1.525
								c-0.138,0.041-0.444-0.574-0.684-1.375C292.168,395.243,292.085,394.56,292.222,394.519z"/>
						</g>
					</g>
					<g>
						<g>
							<path style="fill:#455A64;" d="M290.483,388.718c0.138-0.041,0.444,0.575,0.684,1.375c0.24,0.801,0.323,1.484,0.185,1.525
								c-0.138,0.041-0.444-0.574-0.684-1.375C290.428,389.442,290.345,388.759,290.483,388.718z"/>
						</g>
					</g>
					<g>
						<g>
							<path style="fill:#455A64;" d="M288.743,382.917c0.138-0.041,0.444,0.574,0.684,1.375c0.24,0.801,0.323,1.484,0.185,1.525
								c-0.138,0.041-0.444-0.574-0.684-1.375C288.688,383.641,288.605,382.958,288.743,382.917z"/>
						</g>
					</g>
					<g>
						<g>
							<path style="fill:#455A64;" d="M287.003,377.116c0.138-0.041,0.444,0.574,0.684,1.375c0.24,0.801,0.323,1.484,0.185,1.525
								c-0.138,0.041-0.444-0.574-0.684-1.375C286.949,377.84,286.866,377.157,287.003,377.116z"/>
						</g>
					</g>
					<g>
						<g>
							<path style="fill:#455A64;" d="M285.264,371.315c0.138-0.041,0.444,0.574,0.684,1.375c0.24,0.801,0.323,1.484,0.185,1.525
								c-0.138,0.041-0.444-0.574-0.684-1.376C285.209,372.039,285.126,371.356,285.264,371.315z"/>
						</g>
					</g>
					<g>
						<g>
							<path style="fill:#455A64;" d="M283.524,365.514c0.138-0.041,0.444,0.575,0.684,1.375c0.24,0.801,0.323,1.484,0.186,1.525
								c-0.138,0.041-0.444-0.574-0.684-1.376C283.47,366.238,283.387,365.556,283.524,365.514z"/>
						</g>
					</g>
					<g>
						<g>
							<path style="fill:#455A64;" d="M281.785,359.713c0.138-0.041,0.444,0.575,0.684,1.375c0.24,0.801,0.323,1.484,0.185,1.525
								c-0.138,0.041-0.444-0.574-0.684-1.376C281.73,360.437,281.647,359.755,281.785,359.713z"/>
						</g>
					</g>
					<g>
						<g>
							<path style="fill:#455A64;" d="M280.045,353.912c0.138-0.041,0.444,0.575,0.684,1.375c0.24,0.801,0.323,1.484,0.185,1.525
								c-0.138,0.041-0.444-0.574-0.684-1.376C279.99,354.637,279.907,353.954,280.045,353.912z"/>
						</g>
					</g>
					<g>
						<g>
							<path style="fill:#455A64;" d="M278.305,348.112c0.138-0.041,0.444,0.575,0.684,1.375c0.24,0.801,0.323,1.484,0.186,1.525
								c-0.138,0.041-0.444-0.574-0.684-1.376C278.251,348.836,278.168,348.153,278.305,348.112z"/>
						</g>
					</g>
					<g>
						<g>
							<path style="fill:#455A64;" d="M276.566,342.311c0.138-0.041,0.444,0.575,0.684,1.375c0.24,0.801,0.323,1.484,0.186,1.525
								c-0.138,0.041-0.444-0.574-0.684-1.375C276.511,343.035,276.428,342.352,276.566,342.311z"/>
						</g>
					</g>
					<g>
						<g>
							<path style="fill:#455A64;" d="M274.826,336.51c0.138-0.041,0.444,0.574,0.684,1.375c0.24,0.801,0.323,1.484,0.186,1.525
								c-0.138,0.041-0.444-0.574-0.684-1.375C274.772,337.234,274.689,336.551,274.826,336.51z"/>
						</g>
					</g>
					<g>
						<g>
							<path style="fill:#455A64;" d="M273.087,330.709c0.138-0.041,0.444,0.575,0.684,1.375c0.24,0.801,0.323,1.484,0.185,1.525
								c-0.138,0.041-0.444-0.574-0.684-1.376C273.032,331.433,272.949,330.75,273.087,330.709z"/>
						</g>
					</g>
					<g>
						<g>
							<path style="fill:#455A64;" d="M271.347,324.908c0.138-0.041,0.444,0.575,0.684,1.375c0.24,0.801,0.323,1.484,0.185,1.525
								c-0.138,0.041-0.444-0.574-0.684-1.376C271.292,325.632,271.209,324.949,271.347,324.908z"/>
						</g>
					</g>
					<g>
						<g>
							<path style="fill:#455A64;" d="M269.607,319.107c0.138-0.041,0.444,0.575,0.684,1.375c0.24,0.801,0.323,1.484,0.186,1.525
								c-0.138,0.041-0.444-0.574-0.684-1.376C269.553,319.831,269.47,319.148,269.607,319.107z"/>
						</g>
					</g>
					<g>
						<g>
							<path style="fill:#455A64;" d="M267.868,313.306c0.138-0.041,0.444,0.574,0.684,1.375c0.24,0.801,0.323,1.484,0.185,1.525
								c-0.138,0.041-0.444-0.574-0.684-1.376C267.813,314.03,267.73,313.348,267.868,313.306z"/>
						</g>
					</g>
					<g>
						<g>
							<path style="fill:#455A64;" d="M266.128,307.505c0.138-0.041,0.444,0.574,0.684,1.375c0.24,0.801,0.323,1.484,0.185,1.525
								c-0.138,0.041-0.444-0.574-0.684-1.375C266.074,308.229,265.991,307.547,266.128,307.505z"/>
						</g>
					</g>
					<g>
						<g>
							<path style="fill:#455A64;" d="M264.389,301.704c0.138-0.041,0.444,0.574,0.684,1.375c0.24,0.801,0.323,1.484,0.185,1.525
								c-0.138,0.041-0.444-0.574-0.684-1.375C264.334,302.428,264.251,301.746,264.389,301.704z"/>
						</g>
					</g>
					<g>
						<g>
							<path style="fill:#455A64;" d="M262.649,295.904c0.138-0.041,0.444,0.574,0.684,1.375c0.24,0.801,0.323,1.484,0.185,1.525
								c-0.138,0.041-0.444-0.574-0.684-1.376C262.594,296.628,262.511,295.945,262.649,295.904z"/>
						</g>
					</g>
					<g>
						<g>
							<path style="fill:#455A64;" d="M260.91,290.103c0.138-0.041,0.444,0.574,0.684,1.375c0.24,0.801,0.323,1.484,0.185,1.525
								c-0.138,0.041-0.444-0.575-0.684-1.376C260.855,290.827,260.772,290.144,260.91,290.103z"/>
						</g>
					</g>
					<g>
						<g>
							<path style="fill:#455A64;" d="M259.17,284.302c0.138-0.041,0.444,0.574,0.684,1.375c0.24,0.801,0.323,1.484,0.186,1.525
								c-0.138,0.041-0.444-0.574-0.684-1.376C259.115,285.026,259.032,284.343,259.17,284.302z"/>
						</g>
					</g>
					<g>
						<g>
							<path style="fill:#455A64;" d="M257.43,278.501c0.138-0.041,0.444,0.574,0.684,1.375c0.24,0.801,0.323,1.484,0.186,1.525
								c-0.138,0.041-0.444-0.574-0.684-1.376C257.376,279.225,257.293,278.542,257.43,278.501z"/>
						</g>
					</g>
					<g>
						<g>
							<path style="fill:#455A64;" d="M256.13,274.164c0.138-0.041,0.346,0.247,0.465,0.643c0.119,0.397,0.104,0.752-0.034,0.793
								c-0.138,0.041-0.346-0.247-0.465-0.644C255.977,274.56,255.992,274.205,256.13,274.164z"/>
						</g>
					</g>
				</g>
				<g>
					<g>
						<g>
							<path style="fill:#455A64;" d="M238.125,447.855c0.144-0.007,0.277,0.322,0.299,0.735c0.021,0.413-0.078,0.754-0.221,0.762
								s-0.277-0.321-0.299-0.735C237.882,448.203,237.981,447.862,238.125,447.855z"/>
						</g>
					</g>
					<g>
						<g>
							<path style="fill:#455A64;" d="M237.878,441.904c0.144-0.005,0.286,0.657,0.317,1.478c0.031,0.822-0.06,1.492-0.204,1.498
								c-0.144,0.006-0.285-0.656-0.317-1.478C237.643,442.579,237.735,441.909,237.878,441.904z"/>
						</g>
					</g>
					<g>
						<g>
							<path style="fill:#455A64;" d="M237.695,435.951c0.144-0.004,0.28,0.659,0.303,1.481c0.024,0.822-0.074,1.492-0.217,1.496
								c-0.144,0.004-0.279-0.659-0.303-1.481C237.454,436.625,237.551,435.955,237.695,435.951z"/>
						</g>
					</g>
					<g>
						<g>
							<path style="fill:#455A64;" d="M237.544,429.996c0.144-0.003,0.277,0.66,0.297,1.482c0.02,0.822-0.08,1.492-0.224,1.495
								c-0.144,0.004-0.277-0.66-0.297-1.482C237.3,430.669,237.4,430,237.544,429.996z"/>
						</g>
					</g>
					<g>
						<g>
							<path style="fill:#455A64;" d="M237.402,424.039c0.144-0.004,0.276,0.661,0.296,1.483c0.02,0.823-0.081,1.492-0.225,1.496
								c-0.144,0.003-0.276-0.66-0.296-1.483C237.157,424.712,237.258,424.042,237.402,424.039z"/>
						</g>
					</g>
					<g>
						<g>
							<path style="fill:#455A64;" d="M237.247,418.08c0.144-0.004,0.278,0.66,0.301,1.483c0.022,0.823-0.076,1.493-0.22,1.497
								c-0.144,0.004-0.278-0.66-0.3-1.483C237.005,418.754,237.103,418.084,237.247,418.08z"/>
						</g>
					</g>
					<g>
						<g>
							<path style="fill:#455A64;" d="M237.05,412.123c0.144-0.006,0.284,0.657,0.313,1.479c0.029,0.823-0.064,1.494-0.207,1.498
								c-0.144,0.005-0.284-0.658-0.313-1.48C236.814,412.8,236.907,412.129,237.05,412.123z"/>
						</g>
					</g>
					<g>
						<g>
							<path style="fill:#455A64;" d="M236.8,406.172c0.144-0.006,0.288,0.655,0.323,1.477c0.035,0.822-0.054,1.493-0.198,1.499
								c-0.144,0.006-0.288-0.655-0.323-1.477C236.568,406.849,236.656,406.178,236.8,406.172z"/>
						</g>
					</g>
					<g>
						<g>
							<path style="fill:#455A64;" d="M236.568,400.219c0.144-0.005,0.285,0.656,0.317,1.478c0.031,0.822-0.06,1.493-0.204,1.498
								c-0.144,0.006-0.286-0.656-0.317-1.478C236.333,400.896,236.424,400.225,236.568,400.219z"/>
						</g>
					</g>
					<g>
						<g>
							<path style="fill:#455A64;" d="M236.36,394.266c0.144-0.005,0.283,0.658,0.311,1.479c0.028,0.822-0.066,1.492-0.21,1.497
								c-0.144,0.005-0.283-0.658-0.311-1.48C236.122,394.941,236.216,394.271,236.36,394.266z"/>
						</g>
					</g>
					<g>
						<g>
							<path style="fill:#455A64;" d="M236.178,388.308c0.144-0.004,0.28,0.659,0.304,1.481c0.024,0.822-0.073,1.492-0.216,1.496
								c-0.144,0.004-0.28-0.659-0.304-1.481C235.937,388.982,236.034,388.312,236.178,388.308z"/>
						</g>
					</g>
					<g>
						<g>
							<path style="fill:#455A64;" d="M236.022,382.353c0.144-0.004,0.277,0.66,0.298,1.482c0.021,0.822-0.079,1.492-0.223,1.495
								c-0.144,0.004-0.277-0.66-0.298-1.482C235.779,383.026,235.878,382.356,236.022,382.353z"/>
						</g>
					</g>
					<g>
						<g>
							<path style="fill:#455A64;" d="M235.894,376.397c0.144-0.003,0.274,0.661,0.291,1.483c0.017,0.822-0.086,1.491-0.23,1.494
								c-0.144,0.003-0.274-0.661-0.291-1.484C235.647,377.069,235.75,376.4,235.894,376.397z"/>
						</g>
					</g>
					<g>
						<g>
							<path style="fill:#455A64;" d="M235.793,370.442c0.144-0.002,0.271,0.663,0.284,1.485c0.013,0.823-0.093,1.491-0.237,1.493
								c-0.144,0.002-0.271-0.663-0.284-1.485C235.544,371.112,235.65,370.444,235.793,370.442z"/>
						</g>
					</g>
					<g>
						<g>
							<path style="fill:#455A64;" d="M235.722,364.486c0.144-0.002,0.268,0.664,0.277,1.486c0.009,0.823-0.1,1.49-0.244,1.492
								c-0.144,0.001-0.268-0.664-0.276-1.486C235.469,365.155,235.578,364.487,235.722,364.486z"/>
						</g>
					</g>
					<g>
						<g>
							<path style="fill:#455A64;" d="M235.679,358.529c0.144-0.001,0.264,0.665,0.269,1.487c0.005,0.823-0.108,1.49-0.252,1.491
								c-0.144,0.001-0.264-0.665-0.269-1.488C235.423,359.197,235.536,358.53,235.679,358.529z"/>
						</g>
					</g>
					<g>
						<g>
							<path style="fill:#455A64;" d="M235.666,352.573c0.144,0,0.261,0.667,0.262,1.489c0.001,0.823-0.115,1.489-0.259,1.49
								c-0.144,0-0.261-0.666-0.262-1.489C235.407,353.24,235.523,352.573,235.666,352.573z"/>
						</g>
					</g>
					<g>
						<g>
							<path style="fill:#455A64;" d="M235.683,346.616c0.144,0,0.258,0.668,0.254,1.49c-0.003,0.823-0.123,1.489-0.267,1.488
								s-0.258-0.668-0.254-1.49C235.42,347.282,235.54,346.615,235.683,346.616z"/>
						</g>
					</g>
					<g>
						<g>
							<path style="fill:#455A64;" d="M235.73,340.659c0.144,0.001,0.254,0.669,0.247,1.491c-0.008,0.823-0.13,1.488-0.274,1.487
								c-0.144-0.001-0.254-0.669-0.247-1.492C235.464,341.324,235.587,340.658,235.73,340.659z"/>
						</g>
					</g>
					<g>
						<g>
							<path style="fill:#455A64;" d="M235.807,334.703c0.144,0.002,0.251,0.67,0.239,1.493c-0.012,0.823-0.138,1.487-0.282,1.486
								c-0.144-0.002-0.251-0.67-0.239-1.493C235.538,335.366,235.664,334.701,235.807,334.703z"/>
						</g>
					</g>
					<g>
						<g>
							<path style="fill:#455A64;" d="M235.914,328.749c0.144,0.003,0.247,0.672,0.232,1.494c-0.015,0.822-0.144,1.487-0.288,1.484
								c-0.144-0.003-0.248-0.671-0.233-1.494C235.64,329.411,235.77,328.746,235.914,328.749z"/>
						</g>
					</g>
					<g>
						<g>
							<path style="fill:#455A64;" d="M236.048,322.79c0.144,0.004,0.244,0.674,0.224,1.496c-0.02,0.823-0.153,1.487-0.297,1.484
								c-0.144-0.003-0.244-0.673-0.224-1.497C235.771,323.45,235.904,322.786,236.048,322.79z"/>
						</g>
					</g>
					<g>
						<g>
							<path style="fill:#455A64;" d="M236.257,316.831c0.144,0.007,0.234,0.678,0.201,1.5c-0.033,0.822-0.176,1.484-0.319,1.479
								c-0.144-0.005-0.234-0.676-0.201-1.5C235.971,317.487,236.114,316.824,236.257,316.831z"/>
						</g>
					</g>
					<g>
						<g>
							<path style="fill:#455A64;" d="M236.604,310.881c0.143,0.011,0.216,0.684,0.163,1.504c-0.054,0.82-0.214,1.478-0.357,1.47
								c-0.144-0.008-0.216-0.681-0.163-1.504C236.301,311.528,236.461,310.87,236.604,310.881z"/>
						</g>
					</g>
					<g>
						<g>
							<path style="fill:#455A64;" d="M237.15,304.949c0.143,0.016,0.191,0.691,0.108,1.508c-0.083,0.817-0.266,1.468-0.41,1.455
								c-0.143-0.013-0.192-0.688-0.108-1.508C236.823,305.584,237.007,304.933,237.15,304.949z"/>
						</g>
					</g>
					<g>
						<g>
							<path style="fill:#455A64;" d="M237.725,300.521c0.142,0.021,0.21,0.37,0.152,0.779c-0.058,0.409-0.221,0.725-0.363,0.706
								c-0.143-0.019-0.211-0.368-0.152-0.779C237.421,300.816,237.583,300.5,237.725,300.521z"/>
						</g>
					</g>
				</g>
				<g>
					<polygon style="fill:#455A64;" points="215.228,449.621 243.592,450.084 243.369,445.358 215.228,445.507 					"/>
				</g>
				<g>
					<g>
						<path style="fill:#455A64;" d="M233.827,272.367c0.036-0.002,0.094,0.387,0.169,1.092c0.075,0.705,0.166,1.727,0.268,2.99
							c0.204,2.526,0.449,6.018,0.688,9.876c0.112,1.923,0.218,3.755,0.316,5.442c0.1,1.674,0.096,3.188,0.518,4.346
							c0.395,1.166,1.202,1.863,1.81,2.151c0.624,0.291,1.036,0.244,1.032,0.296c0.001,0.015-0.097,0.041-0.288,0.045
							c-0.191,0.006-0.478-0.029-0.824-0.155c-0.679-0.25-1.601-0.963-2.075-2.209c-0.497-1.233-0.525-2.789-0.652-4.445
							c-0.111-1.686-0.231-3.517-0.357-5.439c-0.239-3.859-0.426-7.354-0.535-9.886c-0.055-1.266-0.09-2.291-0.103-3
							C233.782,272.763,233.792,272.37,233.827,272.367z"/>
					</g>
				</g>
				<g>
					<g>
						<path style="fill:#455A64;" d="M236.581,274.74c0.04,0.067-0.225,0.244-0.249,0.666c-0.012,0.201,0.044,0.454,0.207,0.611
							c0.153,0.16,0.431,0.201,0.7,0.095c0.267-0.111,0.438-0.335,0.436-0.556c0.008-0.226-0.129-0.446-0.278-0.582
							c-0.312-0.286-0.625-0.228-0.643-0.304c-0.047-0.048,0.331-0.302,0.859,0.006c0.239,0.148,0.508,0.433,0.541,0.867
							c0.041,0.443-0.291,0.888-0.719,1.052c-0.422,0.181-0.97,0.093-1.249-0.253c-0.279-0.334-0.285-0.726-0.216-0.999
							C236.133,274.754,236.582,274.672,236.581,274.74z"/>
					</g>
				</g>
				<g>
					<g>
						<path style="fill:#455A64;" d="M261.819,278.976c0.027,0.045-0.764,0.549-2.228,0.849c-1.442,0.306-3.606,0.305-5.713-0.635
							c-2.106-0.943-3.55-2.555-4.284-3.833c-0.752-1.291-0.904-2.216-0.853-2.226c0.085-0.031,0.361,0.839,1.164,2.029
							c0.787,1.184,2.198,2.665,4.186,3.555c1.988,0.887,4.033,0.95,5.44,0.747C260.952,279.266,261.785,278.891,261.819,278.976z"
							/>
					</g>
				</g>
				<g>
					<g>
						<path style="fill:#455A64;" d="M217.215,272.369c0.056-0.005,0.172,0.75-0.095,1.935c-0.255,1.172-0.988,2.776-2.401,4.016
							c-1.416,1.239-3.102,1.754-4.297,1.853c-1.211,0.109-1.943-0.105-1.931-0.16c0.008-0.087,0.742-0.009,1.882-0.205
							c1.131-0.187,2.685-0.727,4.003-1.88c1.315-1.155,2.055-2.625,2.388-3.721C217.109,273.103,217.128,272.365,217.215,272.369z"
							/>
					</g>
				</g>
			</g>
			<g>
				<path style="fill:#FFBE9D;" d="M293.165,253.267c5.507-6.332,5.475-15.763-0.076-22.057l-26.746-30.328l-7.158,20.011
					c0.488,0.325,20.824,22.126,20.824,22.126l-17.476,21.78c-2.692,3.355-3.475,7.856-2.075,11.923l4.669,11.431l12.785-5.735
					l-0.971-1.492h-9.596l-0.57-2.3l0,0L293.165,253.267z"/>
			</g>
			<g>
				<g>
					<path style="fill:#455A64;" d="M182.756,149.096c0,0,4.19,4.94,8.526-0.932c3.407-4.614,4.137-10.321,1.403-12.738l0.894-0.594
						c0,0,4.559,2.955,2.5,9.404c-2.059,6.449-6.495,9.78-9.648,9.276c-3.153-0.504-3.989-3.804-3.989-3.804l0.307-0.93"/>
				</g>
				<g>
					<path style="fill:#FFBE9D;" d="M210.204,197.012c0,0-26.831,11.072-26.223,10.339l-0.677-32.916h-10.501
						c0,0-7.469,43.418,0.541,48.531c10.948,6.988,37.456-7.557,37.456-7.557L210.204,197.012z"/>
				</g>
				<g>
					<g>
						<polyline style="fill:#FFBE9D;" points="181.168,161.057 181.12,161.403 179.114,175.75 172.803,174.434 173.606,166.178 
													"/>
					</g>
					<g>
						<path style="fill:#FFBE9D;" d="M183.135,159.629l-4.362,15.543l3.886,0.77c0,0,0.546-1.141,1.817-4.511
							c1.467-3.89-0.105-7.153-0.23-7.496c0,0,3.527-7.961,2.164-8.324C185.047,155.248,183.135,159.629,183.135,159.629z"/>
					</g>
					<g>
						<path style="fill:#263238;" d="M186.536,153.221c-0.224,0.671-9.578,23.804-9.578,23.804l-2.342-1.312l9.404-24.577
							L186.536,153.221z"/>
					</g>
					<g>
						<path style="fill:#FFBE9D;" d="M173.09,173.214c0,0-1.145-6.804,0.111-8.914c0.451-0.757,6.889-9.63,7.354-9.346
							c0.465,0.284,3.254,8.141,1.772,8.406c-1.482,0.265-2.071-1.304-2.071-1.304s1.937,4.835,0.579,4.914
							c-1.358,0.079-2.513-2.914-2.513-2.914s2.861,5.701,1.067,6.001c-1.793,0.3-4.253-4.391-4.253-4.391L173.09,173.214z"/>
					</g>
					<g>
						<g>
							<path style="fill:#EB996E;" d="M179.008,158.115c0.135-0.049,0.775,1.367,1.429,3.164c0.167,0.452,0.297,0.881,0.48,1.206
								c0.178,0.33,0.421,0.55,0.67,0.691c0.5,0.281,0.904,0.246,0.909,0.328c0.022,0.055-0.404,0.249-1.066,0.006
								c-0.32-0.117-0.684-0.387-0.924-0.777c-0.248-0.386-0.393-0.834-0.559-1.276
								C179.294,159.661,178.873,158.164,179.008,158.115z"/>
						</g>
					</g>
					<g>
						<g>
							<path style="fill:#EB996E;" d="M177.024,160.317c0.145-0.048,1.077,2.603,2.63,5.682c0.188,0.391,0.376,0.733,0.647,0.834
								c0.281,0.113,0.483-0.012,0.571-0.318c0.089-0.295,0.061-0.653,0.049-0.98c-0.017-0.326-0.046-0.63-0.083-0.907
								c-0.152-1.107-0.381-1.775-0.305-1.803c0.057-0.025,0.414,0.605,0.668,1.739c0.062,0.283,0.114,0.597,0.151,0.937
								c0.027,0.335,0.089,0.705-0.017,1.142c-0.053,0.21-0.171,0.462-0.419,0.615c-0.245,0.154-0.563,0.148-0.802,0.049
								c-0.522-0.21-0.736-0.707-0.924-1.074C177.614,163.109,176.894,160.353,177.024,160.317z"/>
						</g>
					</g>
					<g>
						<g>
							<path style="fill:#EB996E;" d="M175.299,163.618c0.064-0.033,0.472,0.621,1.079,1.704c0.33,0.606,0.678,1.244,1.043,1.915
								c0.195,0.371,0.395,0.75,0.6,1.139c0.215,0.389,0.397,0.838,0.66,1.131c0.263,0.296,0.647,0.398,0.886,0.203
								c0.263-0.201,0.377-0.569,0.329-0.923c-0.118-0.718-0.469-1.44-0.64-2.021c-0.402-1.175-0.616-1.915-0.549-1.941
								c0.067-0.026,0.403,0.667,0.893,1.808c0.128,0.304,0.259,0.615,0.394,0.936c0.134,0.335,0.31,0.701,0.378,1.158
								c0.073,0.446-0.039,1.034-0.499,1.39c-0.227,0.182-0.569,0.255-0.857,0.18c-0.289-0.068-0.533-0.235-0.72-0.441
								c-0.365-0.424-0.516-0.859-0.729-1.249c-0.196-0.394-0.387-0.777-0.573-1.152c-0.331-0.688-0.645-1.343-0.944-1.965
								C175.527,164.364,175.235,163.651,175.299,163.618z"/>
						</g>
					</g>
				</g>
				<g>
					<path style="fill:#263238;" d="M187.05,154.243c-0.781,0-1.543-0.151-2.262-0.469c-1.941-0.858-3.257-2.745-3.707-5.311
						c-0.423-2.42-0.021-5.189,1.133-7.798c1.154-2.609,2.932-4.77,5.007-6.085c2.201-1.393,4.482-1.688,6.423-0.83
						c1.94,0.858,3.257,2.744,3.706,5.311c0.423,2.419,0.021,5.189-1.133,7.798C194.23,151.352,190.464,154.243,187.05,154.243z
						 M191.339,135.272c-0.96,0-2.002,0.337-3.047,0.998c-1.744,1.105-3.253,2.953-4.249,5.204
						c-0.996,2.251-1.348,4.611-0.992,6.645c0.33,1.888,1.234,3.247,2.545,3.826c2.805,1.238,6.83-1.46,8.792-5.895
						c0.996-2.251,1.348-4.611,0.992-6.644c-0.33-1.888-1.234-3.247-2.545-3.826C192.37,135.374,191.867,135.272,191.339,135.272z"
						/>
				</g>
			</g>
			<g>
				<g>
					<path style="fill:#0033FF;" d="M280.498,213.706l-16.892-17.029l-0.002,0.004c-3.266-3.389-7.089-5.896-11.664-7.551
						c-2.222-0.804-4.581-1.285-7.31-1.401l0,0c-5.885,1.819-11.771,1.822-17.656,0.011c-2.424,0.304-7.781,0.98-13.921,3.985
						l0-0.002l-25.225,10.234l8.082,22.297l13.523-4.551l0.8,20.965l-2.671,31.371l52.344,0.543l-0.676-28.453l-0.038-20.585
						l7.552,7.352L280.498,213.706z"/>
				</g>
				<g>
					<g>
						<path style="fill:#263238;" d="M266.292,201.135c0,0-0.212,0.422-0.743,1.143c-0.528,0.72-1.382,1.744-2.694,2.835
							c-1.311,1.08-3.102,2.227-5.412,2.992c-2.294,0.773-5.137,1.11-8.152,0.525c-3-0.562-6.187-2.018-8.751-4.595
							c-0.62-0.668-1.171-1.428-1.564-2.295c-0.392-0.856-0.637-1.853-0.452-2.861c0.186-0.994,0.864-1.938,1.855-2.341
							c0.977-0.411,2.095-0.336,3.07,0.035c0.982,0.365,1.875,1.06,2.409,2.024c0.505,0.952,0.717,2.055,0.652,3.137
							c-0.117,2.179-1.103,4.241-2.452,5.986c-2.704,3.536-7.119,5.826-11.805,6.148c-2.343,0.134-4.7-0.221-6.816-1.117
							c-2.094-0.895-4.025-2.307-5.154-4.278c-1.112-1.95-1.327-4.43-0.28-6.394c1.046-1.968,3.41-3.019,5.484-2.505
							c1.043,0.246,1.927,0.971,2.441,1.858c0.531,0.887,0.723,1.918,0.677,2.902c-0.084,2.021-1.423,3.708-2.967,4.643
							c-1.561,0.973-3.355,1.338-5.026,1.343c-1.682,0.01-3.268-0.284-4.749-0.615c-2.959-0.659-5.621-1.557-7.653-2.915
							c-2.05-1.331-3.334-3.126-3.943-4.718c-0.635-1.603-0.625-2.987-0.481-3.866c0.153-0.888,0.382-1.309,0.382-1.309
							c0.034,0.01-0.161,0.446-0.278,1.324c-0.108,0.87-0.084,2.22,0.566,3.775c0.627,1.548,1.894,3.271,3.914,4.55
							c2.002,1.306,4.627,2.167,7.573,2.799c1.472,0.317,3.034,0.594,4.665,0.573c1.622-0.015,3.327-0.379,4.802-1.307
							c1.46-0.9,2.671-2.457,2.739-4.301c0.039-0.903-0.143-1.847-0.623-2.638c-0.466-0.792-1.236-1.418-2.156-1.632
							c-1.833-0.458-4.009,0.508-4.928,2.275c-0.948,1.776-0.757,4.095,0.284,5.904c1.056,1.841,2.893,3.195,4.915,4.056
							c2.037,0.86,4.311,1.202,6.579,1.073c4.537-0.311,8.825-2.533,11.434-5.939c1.307-1.681,2.247-3.664,2.359-5.7
							c0.063-1.01-0.133-2.017-0.587-2.881c-0.461-0.839-1.259-1.474-2.148-1.806c-0.881-0.34-1.885-0.4-2.718-0.051
							c-0.839,0.336-1.419,1.132-1.587,1.996c-0.165,0.872,0.043,1.785,0.409,2.59c0.363,0.814,0.885,1.543,1.472,2.182
							c2.465,2.504,5.579,3.961,8.507,4.529c2.947,0.595,5.729,0.293,7.992-0.44c2.278-0.725,4.059-1.829,5.374-2.872
							c1.316-1.054,2.187-2.046,2.738-2.741C266.02,201.519,266.267,201.119,266.292,201.135z"/>
					</g>
				</g>
				<g>
					<g>
						<path style="fill:#263238;" d="M257.729,245.549c0,0-0.324,0.239-1.034,0.507c-0.707,0.26-1.826,0.529-3.273,0.426
							c-1.439-0.091-3.195-0.575-4.955-1.637c-1.772-1.045-3.525-2.601-5.321-4.433c-0.877-0.928-1.782-2.035-2.115-3.475
							c-0.15-0.717-0.131-1.487,0.113-2.215c0.236-0.721,0.719-1.425,1.453-1.807c0.724-0.391,1.629-0.402,2.398-0.115
							c0.777,0.279,1.46,0.782,2.011,1.41c1.09,1.279,1.606,3.019,1.546,4.755c-0.058,1.738-0.66,3.504-1.784,4.946
							c-1.128,1.437-2.731,2.51-4.508,3.121c-1.78,0.61-3.735,0.791-5.655,0.519c-1.918-0.278-3.791-0.955-5.515-1.917
							c-1.723-0.972-3.303-2.13-4.661-3.513c-1.341-1.372-2.385-3.179-2.409-5.127c-0.023-0.958,0.193-1.933,0.695-2.753
							c0.5-0.827,1.299-1.433,2.168-1.765c1.751-0.637,3.761-0.326,5.151,0.805c1.388,1.138,2.043,2.883,2.1,4.523
							c0.067,1.66-0.493,3.264-1.415,4.498c-1.859,2.514-4.726,3.681-7.258,4.022c-5.139,0.563-9.396-0.592-11.761-2.257
							c-1.202-0.815-1.878-1.761-2.235-2.422c-0.185-0.332-0.288-0.602-0.347-0.788c-0.065-0.183-0.093-0.277-0.085-0.28
							c0.038-0.016,0.136,0.376,0.523,1.016c0.382,0.633,1.065,1.534,2.258,2.306c2.333,1.577,6.567,2.659,11.593,2.06
							c2.467-0.354,5.213-1.513,6.962-3.911c0.868-1.179,1.376-2.672,1.308-4.228c-0.06-1.537-0.684-3.146-1.945-4.169
							c-1.241-1.011-3.099-1.293-4.671-0.712c-0.78,0.303-1.475,0.834-1.913,1.562c-0.442,0.725-0.639,1.602-0.616,2.48
							c0.025,1.783,0.98,3.457,2.272,4.78c1.305,1.328,2.867,2.475,4.54,3.416c1.679,0.937,3.491,1.591,5.335,1.86
							c1.842,0.263,3.714,0.09,5.416-0.488c1.698-0.58,3.219-1.598,4.283-2.946c1.059-1.348,1.636-3.019,1.696-4.655
							c0.065-1.632-0.422-3.267-1.413-4.44c-0.499-0.577-1.126-1.039-1.813-1.289c-0.683-0.257-1.439-0.244-2.049,0.078
							c-1.248,0.662-1.643,2.292-1.372,3.555c0.29,1.314,1.135,2.39,1.989,3.306c1.761,1.83,3.482,3.39,5.203,4.436
							c1.713,1.065,3.412,1.563,4.821,1.684c1.413,0.131,2.515-0.099,3.223-0.324C257.372,245.725,257.716,245.524,257.729,245.549z
							"/>
					</g>
				</g>
			</g>
		</g>
	</g>
</g>
</svg>
