<svg width="153" height="132" viewBox="0 0 153 132" fill="none" xmlns="http://www.w3.org/2000/svg">
<path d="M132.18 66C132.18 76.3525 129.793 86.1487 125.544 94.862C114.818 116.849 92.2228 132 66.0952 132C29.5901 132 0 102.452 0 66C0 44.5001 10.2978 25.4045 26.2371 13.353C31.5004 9.36896 37.3806 6.15987 43.7185 3.88469C50.7031 1.37107 58.245 0 66.0952 0C100.441 0 128.668 26.1695 131.872 59.6414C132.081 61.7278 132.18 63.854 132.18 66Z" fill="url(#paint0_linear_729_15)"/>
<path opacity="0.08" d="M132.18 66C132.18 76.3525 129.793 86.1487 125.544 94.862C114.47 103.237 100.66 108.215 85.6959 108.215C49.1908 108.215 19.6007 78.6575 19.6007 42.215C19.6007 31.8624 21.9886 22.0662 26.2371 13.353C31.5004 9.36896 37.3806 6.15987 43.7185 3.88469C50.7032 1.37107 58.245 0 66.0952 0C100.441 0 128.668 26.1695 131.872 59.6414C132.081 61.7278 132.18 63.854 132.18 66Z" fill="white"/>
<path opacity="0.08" d="M131.872 59.6414C124.887 62.1551 117.346 63.5261 109.495 63.5261C75.1493 63.5261 46.9223 37.3566 43.7185 3.88469C50.7031 1.37107 58.2449 0 66.0952 0C100.441 0 128.668 26.1695 131.872 59.6414Z" fill="white"/>
<path d="M104.68 35.8733V42.212L101.546 35.3964L104.68 35.8733Z" fill="#F4640E"/>
<path d="M4.04749 111.091C35.0107 113.42 85.4143 110.139 127.441 74.1936L134.873 88.7955L153 50.3361L113.273 44.2328L121.052 61.1546C121.052 61.1546 83.2772 105.57 4.11912 107.715C1.97299 107.774 1.90634 110.93 4.04749 111.091Z" fill="#FFC107"/>
<path d="M46.3352 58.2177V94.9385C39.6889 96.6473 32.565 98.078 24.9436 99.0815V58.2177C24.9436 55.7736 26.9236 53.7965 29.3712 53.7965H41.9077C44.3553 53.7965 46.3352 55.7736 46.3352 58.2177Z" fill="white" fill-opacity="0.92"/>
<path d="M75.5075 41.1588V84.5462C69.1497 87.5069 62.0158 90.3186 54.1158 92.7428V41.1588C54.1158 38.7148 56.0958 36.7376 58.5434 36.7376H71.0799C73.5275 36.7376 75.5075 38.7148 75.5075 41.1588Z" fill="white" fill-opacity="0.92"/>
<path d="M104.68 25.7592V66.7422C99.4363 70.8852 92.3223 75.8329 83.2881 80.6615V25.7592C83.2881 23.325 85.268 21.338 87.7156 21.338H100.252C102.69 21.338 104.68 23.325 104.68 25.7592Z" fill="white" fill-opacity="0.92"/>
<defs>
<linearGradient id="paint0_linear_729_15" x1="95.5" y1="6.49999" x2="34" y2="128" gradientUnits="userSpaceOnUse">
<stop stop-color="#0131FF"/>
<stop offset="1" stop-color="#FA1D63" stop-opacity="0.9"/>
</linearGradient>
</defs>
</svg>
