<svg width="560" height="132" viewBox="0 0 560 132" fill="none" xmlns="http://www.w3.org/2000/svg">
<path d="M173.488 94V43.34H192.868C196.359 43.34 199.441 43.952 202.116 45.176C204.836 46.4 206.967 48.2133 208.508 50.616C210.049 53.0187 210.82 55.988 210.82 59.524C210.82 62.9693 210.027 65.916 208.44 68.364C206.853 70.7667 204.723 72.58 202.048 73.804L213.608 94H201.776L189.264 71.628L196.064 75.64H184.028V94H173.488ZM184.028 66.46H192.936C194.432 66.46 195.724 66.1653 196.812 65.576C197.9 64.9867 198.739 64.1707 199.328 63.128C199.963 62.0853 200.28 60.884 200.28 59.524C200.28 58.1187 199.963 56.8947 199.328 55.852C198.739 54.8093 197.9 53.9933 196.812 53.404C195.724 52.8147 194.432 52.52 192.936 52.52H184.028V66.46ZM228.227 94.816C225.553 94.816 223.241 94.3853 221.291 93.524C219.342 92.6627 217.846 91.4387 216.803 89.852C215.761 88.22 215.239 86.2933 215.239 84.072C215.239 81.9867 215.715 80.1507 216.667 78.564C217.619 76.932 219.07 75.572 221.019 74.484C223.014 73.396 225.485 72.6253 228.431 72.172L239.787 70.336V77.816L230.267 79.516C228.817 79.788 227.706 80.264 226.935 80.944C226.165 81.5787 225.779 82.508 225.779 83.732C225.779 84.8653 226.21 85.7493 227.071 86.384C227.933 87.0187 228.998 87.336 230.267 87.336C231.945 87.336 233.418 86.9733 234.687 86.248C235.957 85.5227 236.931 84.548 237.611 83.324C238.337 82.0547 238.699 80.672 238.699 79.176V69.52C238.699 68.1147 238.133 66.936 236.999 65.984C235.911 65.032 234.415 64.556 232.511 64.556C230.698 64.556 229.089 65.0547 227.683 66.052C226.323 67.0493 225.326 68.364 224.691 69.996L216.531 66.12C217.257 64.0347 218.413 62.244 219.999 60.748C221.586 59.252 223.49 58.096 225.711 57.28C227.933 56.464 230.358 56.056 232.987 56.056C236.115 56.056 238.881 56.6227 241.283 57.756C243.686 58.8893 245.545 60.476 246.859 62.516C248.219 64.5107 248.899 66.8453 248.899 69.52V94H239.379V88.016L241.691 87.608C240.603 89.24 239.402 90.6 238.087 91.688C236.773 92.7307 235.299 93.5013 233.667 94C232.035 94.544 230.222 94.816 228.227 94.816ZM255.02 94V56.872H264.54V64.216L263.996 62.584C264.857 60.3627 266.24 58.7307 268.144 57.688C270.093 56.6 272.36 56.056 274.944 56.056C277.755 56.056 280.203 56.6453 282.288 57.824C284.419 59.0027 286.073 60.6573 287.252 62.788C288.431 64.8733 289.02 67.3213 289.02 70.132V94H278.82V72.308C278.82 70.8573 278.525 69.6107 277.936 68.568C277.392 67.5253 276.599 66.7093 275.556 66.12C274.559 65.5307 273.38 65.236 272.02 65.236C270.705 65.236 269.527 65.5307 268.484 66.12C267.441 66.7093 266.625 67.5253 266.036 68.568C265.492 69.6107 265.22 70.8573 265.22 72.308V94H255.02ZM294.367 94V42.524H304.567V75.504L300.759 74.28L317.147 56.872H329.727L316.263 71.832L329.659 94H318.099L306.879 75.164L312.795 73.668L301.439 86.044L304.567 80.128V94H294.367ZM353.727 94.816C349.737 94.816 346.179 93.9773 343.051 92.3C339.923 90.6227 337.452 88.3333 335.639 85.432C333.871 82.4853 332.987 79.1533 332.987 75.436V43.34H343.527V74.756C343.527 76.7507 343.957 78.564 344.819 80.196C345.725 81.7827 346.949 83.0293 348.491 83.936C350.032 84.8427 351.777 85.296 353.727 85.296C355.721 85.296 357.467 84.8427 358.963 83.936C360.504 83.0293 361.705 81.7827 362.567 80.196C363.473 78.564 363.927 76.7507 363.927 74.756V43.34H374.467V75.436C374.467 79.1533 373.56 82.4853 371.747 85.432C369.979 88.3333 367.531 90.6227 364.403 92.3C361.275 93.9773 357.716 94.816 353.727 94.816ZM380.698 107.6V56.872H390.218V63.944L389.334 61.904C390.558 60.0453 392.212 58.6173 394.298 57.62C396.428 56.5773 398.854 56.056 401.574 56.056C405.11 56.056 408.306 56.9173 411.162 58.64C414.018 60.3627 416.284 62.6973 417.962 65.644C419.639 68.5453 420.478 71.8093 420.478 75.436C420.478 79.0173 419.639 82.2813 417.962 85.228C416.33 88.1747 414.086 90.5093 411.23 92.232C408.374 93.9547 405.132 94.816 401.506 94.816C398.967 94.816 396.61 94.3627 394.434 93.456C392.303 92.504 390.58 91.1213 389.266 89.308L390.898 87.2V107.6H380.698ZM400.282 85.636C402.186 85.636 403.863 85.2053 405.314 84.344C406.764 83.4827 407.898 82.2813 408.714 80.74C409.53 79.1987 409.938 77.4307 409.938 75.436C409.938 73.4413 409.53 71.696 408.714 70.2C407.898 68.6587 406.764 67.4573 405.314 66.596C403.863 65.6893 402.186 65.236 400.282 65.236C398.468 65.236 396.836 65.6667 395.386 66.528C393.98 67.3893 392.87 68.5907 392.054 70.132C391.283 71.6733 390.898 73.4413 390.898 75.436C390.898 77.4307 391.283 79.1987 392.054 80.74C392.87 82.2813 393.98 83.4827 395.386 84.344C396.836 85.2053 398.468 85.636 400.282 85.636ZM425.84 94V43.34H460.52V52.52H436.38V65.372H457.12V74.552H436.38V94H425.84ZM473.739 94.816C471.065 94.816 468.753 94.3853 466.803 93.524C464.854 92.6627 463.358 91.4387 462.315 89.852C461.273 88.22 460.751 86.2933 460.751 84.072C460.751 81.9867 461.227 80.1507 462.179 78.564C463.131 76.932 464.582 75.572 466.531 74.484C468.526 73.396 470.997 72.6253 473.943 72.172L485.299 70.336V77.816L475.779 79.516C474.329 79.788 473.218 80.264 472.447 80.944C471.677 81.5787 471.291 82.508 471.291 83.732C471.291 84.8653 471.722 85.7493 472.583 86.384C473.445 87.0187 474.51 87.336 475.779 87.336C477.457 87.336 478.93 86.9733 480.199 86.248C481.469 85.5227 482.443 84.548 483.123 83.324C483.849 82.0547 484.211 80.672 484.211 79.176V69.52C484.211 68.1147 483.645 66.936 482.511 65.984C481.423 65.032 479.927 64.556 478.023 64.556C476.21 64.556 474.601 65.0547 473.195 66.052C471.835 67.0493 470.838 68.364 470.203 69.996L462.043 66.12C462.769 64.0347 463.925 62.244 465.511 60.748C467.098 59.252 469.002 58.096 471.223 57.28C473.445 56.464 475.87 56.056 478.499 56.056C481.627 56.056 484.393 56.6227 486.795 57.756C489.198 58.8893 491.057 60.476 492.371 62.516C493.731 64.5107 494.411 66.8453 494.411 69.52V94H484.891V88.016L487.203 87.608C486.115 89.24 484.914 90.6 483.599 91.688C482.285 92.7307 480.811 93.5013 479.179 94C477.547 94.544 475.734 94.816 473.739 94.816ZM515.084 94.816C511.004 94.816 507.445 93.864 504.408 91.96C501.416 90.0107 499.376 87.404 498.288 84.14L505.768 80.604C506.72 82.5987 508.012 84.1627 509.644 85.296C511.276 86.4293 513.089 86.996 515.084 86.996C516.535 86.996 517.645 86.7013 518.416 86.112C519.187 85.5227 519.572 84.7067 519.572 83.664C519.572 83.12 519.436 82.6667 519.164 82.304C518.892 81.896 518.484 81.5333 517.94 81.216C517.396 80.8987 516.716 80.6267 515.9 80.4L509.576 78.632C506.539 77.7707 504.204 76.388 502.572 74.484C500.94 72.5347 500.124 70.2453 500.124 67.616C500.124 65.304 500.713 63.2867 501.892 61.564C503.071 59.8413 504.725 58.504 506.856 57.552C508.987 56.5547 511.435 56.056 514.2 56.056C517.827 56.056 521 56.9173 523.72 58.64C526.485 60.3173 528.435 62.6973 529.568 65.78L522.02 69.316C521.476 67.7747 520.479 66.5507 519.028 65.644C517.623 64.692 516.013 64.216 514.2 64.216C512.885 64.216 511.843 64.488 511.072 65.032C510.347 65.576 509.984 66.324 509.984 67.276C509.984 67.7747 510.12 68.228 510.392 68.636C510.664 69.044 511.095 69.4067 511.684 69.724C512.319 70.0413 513.089 70.336 513.996 70.608L519.912 72.376C522.995 73.2827 525.352 74.6653 526.984 76.524C528.616 78.3373 529.432 80.5813 529.432 83.256C529.432 85.568 528.82 87.5853 527.596 89.308C526.417 91.0307 524.763 92.3907 522.632 93.388C520.501 94.34 517.985 94.816 515.084 94.816ZM552.052 94.408C547.564 94.408 544.073 93.2067 541.58 90.804C539.132 88.356 537.908 84.956 537.908 80.604V65.712H531.652V56.872H531.992C533.896 56.872 535.347 56.396 536.344 55.444C537.387 54.492 537.908 53.064 537.908 51.16V48.44H548.108V56.872H556.812V65.712H548.108V79.924C548.108 81.1933 548.335 82.2587 548.788 83.12C549.241 83.936 549.944 84.548 550.896 84.956C551.848 85.364 553.027 85.568 554.432 85.568C554.749 85.568 555.112 85.5453 555.52 85.5C555.928 85.4547 556.359 85.4093 556.812 85.364V94C556.132 94.0907 555.361 94.1813 554.5 94.272C553.639 94.3627 552.823 94.408 552.052 94.408Z" fill="black"/>
<path d="M132.18 66C132.18 76.3525 129.793 86.1487 125.544 94.862C114.818 116.849 92.2228 132 66.0952 132C29.5901 132 0 102.452 0 66C0 44.5001 10.2978 25.4045 26.2371 13.353C31.5004 9.36896 37.3806 6.15987 43.7185 3.88469C50.7031 1.37107 58.245 0 66.0952 0C100.441 0 128.668 26.1695 131.872 59.6414C132.081 61.7278 132.18 63.854 132.18 66Z" fill="url(#paint0_linear_729_28)"/>
<path opacity="0.08" d="M132.18 66C132.18 76.3525 129.793 86.1487 125.544 94.862C114.47 103.237 100.66 108.215 85.6959 108.215C49.1908 108.215 19.6007 78.6575 19.6007 42.215C19.6007 31.8624 21.9886 22.0662 26.2371 13.353C31.5004 9.36896 37.3806 6.15987 43.7185 3.88469C50.7032 1.37107 58.245 0 66.0952 0C100.441 0 128.668 26.1695 131.872 59.6414C132.081 61.7278 132.18 63.854 132.18 66Z" fill="white"/>
<path opacity="0.08" d="M131.872 59.6414C124.887 62.1551 117.346 63.5261 109.495 63.5261C75.1493 63.5261 46.9223 37.3566 43.7185 3.88469C50.7031 1.37107 58.2449 0 66.0952 0C100.441 0 128.668 26.1695 131.872 59.6414Z" fill="white"/>
<path d="M104.68 35.8733V42.212L101.546 35.3964L104.68 35.8733Z" fill="#F4640E"/>
<path d="M4.04749 111.091C35.0107 113.42 85.4143 110.139 127.441 74.1936L134.873 88.7955L153 50.3361L113.273 44.2328L121.052 61.1546C121.052 61.1546 83.2772 105.57 4.11912 107.715C1.97299 107.774 1.90634 110.93 4.04749 111.091Z" fill="#FFC107"/>
<path d="M46.3352 58.2177V94.9385C39.6889 96.6473 32.565 98.078 24.9436 99.0815V58.2177C24.9436 55.7736 26.9236 53.7965 29.3712 53.7965H41.9077C44.3553 53.7965 46.3352 55.7736 46.3352 58.2177Z" fill="white" fill-opacity="0.92"/>
<path d="M75.5075 41.1588V84.5462C69.1497 87.5069 62.0158 90.3186 54.1158 92.7428V41.1588C54.1158 38.7148 56.0958 36.7376 58.5434 36.7376H71.0799C73.5275 36.7376 75.5075 38.7148 75.5075 41.1588Z" fill="white" fill-opacity="0.92"/>
<path d="M104.68 25.7592V66.7422C99.4363 70.8852 92.3223 75.8329 83.2881 80.6615V25.7592C83.2881 23.325 85.268 21.338 87.7156 21.338H100.252C102.69 21.338 104.68 23.325 104.68 25.7592Z" fill="white" fill-opacity="0.92"/>
<defs>
<linearGradient id="paint0_linear_729_28" x1="95.5" y1="6.49999" x2="34" y2="128" gradientUnits="userSpaceOnUse">
<stop stop-color="#0131FF"/>
<stop offset="1" stop-color="#FA1D63" stop-opacity="0.9"/>
</linearGradient>
</defs>
</svg>
